<svg width="166" height="166" viewBox="0 0 166 166" fill="none" xmlns="http://www.w3.org/2000/svg">
<path d="M141.67 82.9914C141.67 115.399 115.399 141.67 82.9914 141.67C50.584 141.67 24.3125 115.399 24.3125 82.9914C24.3125 50.584 50.584 24.3125 82.9914 24.3125C115.399 24.3125 141.67 50.584 141.67 82.9914ZM45.8437 82.9914C45.8437 103.508 62.4753 120.139 82.9914 120.139C103.508 120.139 120.139 103.508 120.139 82.9914C120.139 62.4753 103.508 45.8437 82.9914 45.8437C62.4753 45.8437 45.8437 62.4753 45.8437 82.9914Z" fill="#D9D9D9" fill-opacity="0.15"/>
<path d="M31.5797 54.6873C35.5155 47.5377 40.8995 41.2878 47.3875 36.3369C53.8755 31.3859 61.325 27.8428 69.2599 25.934C77.1948 24.0251 85.4407 23.7925 93.4706 25.251C101.5 26.7094 109.138 29.8269 115.895 34.4042C122.652 38.9815 128.379 44.9179 132.712 51.8342C137.044 58.7505 139.887 66.4945 141.057 74.5715C142.227 82.6484 141.7 90.8807 139.508 98.7422C137.317 106.604 133.509 113.922 128.329 120.228L111.691 106.563C114.97 102.57 117.38 97.9374 118.768 92.9605C120.155 87.9836 120.489 82.772 119.748 77.6588C119.007 72.5455 117.208 67.6431 114.465 63.2646C111.722 58.8861 108.096 55.1279 103.819 52.2302C99.5413 49.3325 94.7063 47.3589 89.6228 46.4356C84.5394 45.5123 79.3192 45.6596 74.2959 46.868C69.2725 48.0764 64.5565 50.3194 60.4491 53.4537C56.3418 56.588 52.9334 60.5446 50.4418 65.0707L31.5797 54.6873Z" fill="#FC8D94"/>
<path d="M66.4052 139.181C58.2949 136.812 50.7918 132.719 44.4091 127.183C38.0264 121.646 32.9146 114.796 29.4233 107.102L49.0304 98.2054C51.2407 103.076 54.4768 107.413 58.5175 110.918C62.5581 114.423 67.3081 117.014 72.4425 118.513L66.4052 139.181Z" fill="#9DDDD5"/>
<path d="M29.6508 107.603C24.1767 95.8247 22.7652 82.5628 25.6375 69.8959L46.6356 74.6574C44.8172 82.6764 45.7108 91.0721 49.1763 98.5288L29.6508 107.603Z" fill="#92B0EA"/>
<path d="M25.5744 70.1803C26.8892 64.2431 29.119 58.5463 32.1838 53.294L50.7805 64.1455C48.8402 67.4706 47.4287 71.077 46.5963 74.8357L25.5744 70.1803Z" fill="#C8AD98"/>
<path d="M128.127 120.317C120.427 129.629 110.041 136.338 98.3854 139.526C86.7303 142.714 74.3751 142.227 63.0075 138.13L70.3078 117.874C77.5043 120.468 85.3259 120.776 92.7044 118.758C100.083 116.74 106.658 112.493 111.533 106.597L128.127 120.317Z" fill="#EDB37E"/>
</svg>
