<svg width="11" height="12" viewBox="0 0 11 12" fill="none" xmlns="http://www.w3.org/2000/svg">
<path d="M10.016 6.28866C10.0961 6.2886 10.1753 6.27279 10.2492 6.24212C10.3231 6.21144 10.3903 6.16651 10.4468 6.10989C10.5034 6.05326 10.5482 5.98606 10.5788 5.9121C10.6093 5.83815 10.6251 5.7589 10.625 5.67888C10.6249 5.59885 10.6091 5.51962 10.5785 5.44571C10.5478 5.3718 10.5029 5.30465 10.4462 5.2481C10.3896 5.19155 10.3224 5.14671 10.2484 5.11614C10.1745 5.08556 10.0952 5.06985 10.0152 5.06991L10.016 6.28866ZM9.0975 5.67969V6.28906H9.09791L9.0975 5.67969ZM5.01997 5.07031C4.85835 5.07031 4.70336 5.13451 4.58908 5.24879C4.4748 5.36307 4.41059 5.51807 4.41059 5.67969C4.41059 5.8413 4.4748 5.9963 4.58908 6.11058C4.70336 6.22486 4.85835 6.28906 5.01997 6.28906V5.07031ZM5.01245 6.28906C5.17407 6.28906 5.32907 6.22486 5.44335 6.11058C5.55763 5.9963 5.62183 5.8413 5.62183 5.67969C5.62183 5.51807 5.55763 5.36307 5.44335 5.24879C5.32907 5.13451 5.17407 5.07031 5.01245 5.07031V6.28906ZM0.611344 5.07031C0.449728 5.07031 0.294731 5.13451 0.18045 5.24879C0.0661707 5.36307 0.00196934 5.51807 0.00196934 5.67969C0.00196934 5.8413 0.0661707 5.9963 0.18045 6.11058C0.294731 6.22486 0.449728 6.28906 0.611344 6.28906V5.07031ZM10.0152 5.06991H9.99998L10.0006 6.28866H10.016L10.0152 5.06991ZM9.99998 5.06991H9.8192L9.82022 6.28866H10.0006L9.99998 5.06991ZM9.8192 5.06991H9.63883L9.63964 6.28866H9.82022L9.8192 5.06991ZM9.63883 5.06991L9.45805 5.07011L9.45906 6.28886L9.63964 6.28866L9.63883 5.06991ZM9.45805 5.07011L9.27767 5.07031L9.27848 6.28906L9.45906 6.28886L9.45805 5.07011ZM9.27767 5.07031H9.09709L9.09791 6.28906H9.27848L9.27767 5.07031ZM9.0975 5.07031L5.01997 5.07031V6.28906L9.0975 6.28906V5.07031ZM5.01245 5.07031L0.611344 5.07031V6.28906L5.01245 6.28906V5.07031Z" fill="#23B05B"/>
<path d="M5.66749 10.7187L9.96887 6.41717C10.0679 6.31815 10.1465 6.20058 10.2001 6.07119C10.2537 5.9418 10.2812 5.80312 10.2813 5.66307C10.2812 5.52302 10.2537 5.38434 10.2001 5.25495C10.1465 5.12556 10.0679 5.00799 9.96887 4.90897L5.66729 0.607594" stroke="#23B05B" stroke-width="1.21875" stroke-linecap="round" stroke-linejoin="round"/>
</svg>
