<svg width="20" height="20" viewBox="0 0 20 20" fill="none" xmlns="http://www.w3.org/2000/svg">
<g clip-path="url(#clip0_9614_72124)">
<path d="M13.3959 4.57396H12.2648C12.0909 4.57322 11.9222 4.63326 11.7878 4.74369C11.6535 4.85413 11.562 5.00803 11.5291 5.17879C11.4962 5.34956 11.524 5.52644 11.6077 5.67888C11.6914 5.83132 11.8257 5.94974 11.9874 6.01365L13.1355 6.47275C13.2967 6.53691 13.4304 6.65524 13.5138 6.80738C13.5972 6.95951 13.6249 7.13595 13.5922 7.30632C13.5595 7.47669 13.4685 7.63034 13.3348 7.74084C13.201 7.85134 13.033 7.91178 12.8595 7.91176H11.727M12.5618 4.57396V3.76562M12.5618 8.63329V7.91176" stroke="#E9E7DD" stroke-opacity="0.8" stroke-width="1.00156" stroke-linecap="round" stroke-linejoin="round"/>
<path d="M12.0576 13.5654L16.2736 12.2186L16.3027 12.2104C16.5399 12.1585 16.7878 12.1946 17.0003 12.312C17.2128 12.4294 17.3752 12.6202 17.4574 12.8487C17.5395 13.0771 17.5357 13.3277 17.4466 13.5535C17.3576 13.7794 17.1893 13.9651 16.9734 14.076C8.74284 18.3374 10.8424 18.1448 2.25781 15.2851M8.74894 6.23876C8.74894 7.25313 9.1519 8.22595 9.86917 8.94322C10.5864 9.66049 11.5593 10.0635 12.5736 10.0635C13.588 10.0635 14.5608 9.66049 15.2781 8.94322C15.9954 8.22595 16.3983 7.25313 16.3983 6.23876C16.3983 5.22438 15.9954 4.25156 15.2781 3.53429C14.5608 2.81702 13.588 2.41406 12.5736 2.41406C11.5593 2.41406 10.5864 2.81702 9.86917 3.53429C9.1519 4.25156 8.74894 5.22438 8.74894 6.23876Z" stroke="#E9E7DD" stroke-opacity="0.8" stroke-width="1.00156" stroke-linecap="round" stroke-linejoin="round"/>
<path d="M2.25781 10.0551H3.74971C5.48377 10.0375 7.16593 10.6462 8.48718 11.7694L8.51499 11.7938H11.2953C11.5728 11.7931 11.8391 11.9026 12.0358 12.0983C12.2325 12.2939 12.3434 12.5597 12.3441 12.8371C12.3448 13.1145 12.2353 13.3809 12.0396 13.5776C11.844 13.7742 11.5782 13.8851 11.3008 13.8859L7.07327 13.9069" stroke="#E9E7DD" stroke-opacity="0.8" stroke-width="1.00156" stroke-linecap="round" stroke-linejoin="round"/>
</g>
<defs>
<clipPath id="clip0_9614_72124">
<rect width="16.2753" height="16.2753" fill="white" transform="translate(1.74219 1.74219)"/>
</clipPath>
</defs>
</svg>
