<svg width="8" height="10" viewBox="0 0 8 10" fill="none" xmlns="http://www.w3.org/2000/svg">
<path d="M3.91735 7.67969L3.33869 7.34635L4.10102 6.01302H2.80469L4.13569 3.67969L4.71469 4.01302L3.95335 5.34635H5.25002L3.91735 7.67969Z" fill="#E9E7DD" fill-opacity="0.8"/>
<path d="M7.33333 5.66667C7.33333 6.32594 7.13784 6.9704 6.77157 7.51857C6.40529 8.06673 5.8847 8.49397 5.27561 8.74626C4.66652 8.99856 3.9963 9.06457 3.3497 8.93595C2.7031 8.80733 2.10915 8.48986 1.64298 8.02369C1.1768 7.55751 0.859335 6.96357 0.730717 6.31697C0.6021 5.67036 0.668111 5.00014 0.920403 4.39105C1.1727 3.78197 1.59994 3.26137 2.1481 2.8951C2.69626 2.52883 3.34073 2.33333 4 2.33333H5.33333V4L7.33333 2L5.33333 0V1.66667H4C3.20888 1.66667 2.43552 1.90126 1.77772 2.34079C1.11992 2.78031 0.607234 3.40503 0.304484 4.13593C0.00173314 4.86684 -0.0774802 5.6711 0.0768607 6.44703C0.231201 7.22295 0.612164 7.93568 1.17157 8.49509C1.73098 9.0545 2.44372 9.43546 3.21964 9.58981C3.99556 9.74415 4.79983 9.66493 5.53073 9.36218C6.26164 9.05943 6.88635 8.54674 7.32588 7.88895C7.7654 7.23115 8 6.45779 8 5.66667H7.33333Z" fill="#E9E7DD" fill-opacity="0.8"/>
</svg>
