<svg width="88" height="88" viewBox="0 0 88 88" fill="none" xmlns="http://www.w3.org/2000/svg">
<path d="M29.68 30.96V32.784L25.792 42H23.664L27.584 32.784H22.528V30.96H29.68ZM34.0928 42.176C32.8874 42.176 31.9488 41.8827 31.2768 41.296C30.6048 40.6987 30.2688 39.872 30.2688 38.816V38.496C30.2688 37.6853 30.5354 36.8107 31.0688 35.872L33.9168 30.96H36.1888L33.5648 35.488C33.8634 35.3387 34.2528 35.264 34.7328 35.264C35.6928 35.264 36.4661 35.552 37.0528 36.128C37.6394 36.6933 37.9328 37.456 37.9328 38.416V38.752C37.9328 39.8187 37.5861 40.656 36.8928 41.264C36.1994 41.872 35.2661 42.176 34.0928 42.176ZM34.0928 40.4C34.6368 40.4 35.0634 40.2613 35.3728 39.984C35.6821 39.7067 35.8368 39.3227 35.8368 38.832V38.544C35.8368 38.0533 35.6821 37.6747 35.3728 37.408C35.0634 37.1413 34.6368 37.008 34.0928 37.008C33.5488 37.008 33.1221 37.1413 32.8128 37.408C32.5141 37.6747 32.3648 38.048 32.3648 38.528V38.832C32.3648 39.3227 32.5141 39.7067 32.8128 39.984C33.1221 40.2613 33.5488 40.4 34.0928 40.4ZM39.1861 39.728H41.4101V42H39.1861V39.728ZM46.7196 42.176C45.557 42.176 44.629 41.8827 43.9356 41.296C43.2423 40.6987 42.8956 39.8933 42.8956 38.88V38.656C42.8956 38.1227 43.029 37.6427 43.2956 37.216C43.573 36.7787 43.957 36.4427 44.4476 36.208C44.0423 36.0053 43.7223 35.712 43.4876 35.328C43.253 34.944 43.1356 34.5067 43.1356 34.016V33.84C43.1356 33.2427 43.2796 32.7147 43.5676 32.256C43.8556 31.7867 44.2716 31.424 44.8156 31.168C45.3596 30.912 45.9996 30.784 46.7356 30.784C47.4716 30.784 48.1116 30.912 48.6556 31.168C49.1996 31.424 49.6156 31.7867 49.9036 32.256C50.1916 32.7147 50.3356 33.2427 50.3356 33.84V34.016C50.3356 34.496 50.213 34.9333 49.9676 35.328C49.733 35.712 49.413 36.0053 49.0076 36.208C49.4983 36.4533 49.877 36.7947 50.1436 37.232C50.4103 37.6587 50.5436 38.128 50.5436 38.64V38.864C50.5436 39.888 50.197 40.6987 49.5036 41.296C48.8103 41.8827 47.8823 42.176 46.7196 42.176ZM46.7356 35.376C47.2263 35.376 47.605 35.2587 47.8716 35.024C48.1383 34.7787 48.2716 34.448 48.2716 34.032V33.856C48.2716 33.4507 48.133 33.136 47.8556 32.912C47.589 32.6773 47.2156 32.56 46.7356 32.56C46.245 32.56 45.861 32.6773 45.5836 32.912C45.317 33.136 45.1836 33.4507 45.1836 33.856V34.032C45.1836 34.448 45.317 34.7787 45.5836 35.024C45.8503 35.2587 46.2343 35.376 46.7356 35.376ZM46.7356 40.4C47.2903 40.4 47.7223 40.2667 48.0316 40C48.341 39.7227 48.4956 39.3387 48.4956 38.848V38.608C48.4956 38.1387 48.341 37.7707 48.0316 37.504C47.7223 37.2373 47.2903 37.104 46.7356 37.104C46.181 37.104 45.7436 37.2373 45.4236 37.504C45.1143 37.7707 44.9596 38.1387 44.9596 38.608V38.848C44.9596 39.3387 45.1143 39.7227 45.4236 40C45.733 40.2667 46.1703 40.4 46.7356 40.4ZM54.4176 37.776C52.807 37.776 52.0016 36.9013 52.0016 35.152V33.36C52.0016 32.5387 52.2096 31.92 52.6256 31.504C53.0416 31.0773 53.6496 30.864 54.4496 30.864C56.039 30.864 56.8336 31.696 56.8336 33.36V35.152C56.8336 36.9013 56.0283 37.776 54.4176 37.776ZM61.8736 30.88H63.5056L56.4016 42H54.7856L61.8736 30.88ZM54.4336 36.352C54.7323 36.352 54.9296 36.256 55.0256 36.064C55.1323 35.872 55.1856 35.5413 55.1856 35.072V33.568C55.1856 33.0987 55.1323 32.768 55.0256 32.576C54.919 32.3733 54.7216 32.272 54.4336 32.272C54.135 32.272 53.927 32.3733 53.8096 32.576C53.703 32.768 53.6496 33.0987 53.6496 33.568V35.072C53.6496 35.5413 53.703 35.872 53.8096 36.064C53.927 36.256 54.135 36.352 54.4336 36.352ZM63.8416 42.096C62.231 42.096 61.4256 41.2213 61.4256 39.472V37.68C61.4256 36.8587 61.6336 36.24 62.0496 35.824C62.4656 35.3973 63.0736 35.184 63.8736 35.184C65.463 35.184 66.2576 36.016 66.2576 37.68V39.472C66.2576 41.2213 65.4523 42.096 63.8416 42.096ZM63.8576 40.672C64.1563 40.672 64.3536 40.576 64.4496 40.384C64.5563 40.192 64.6096 39.8613 64.6096 39.392V37.888C64.6096 37.4187 64.5563 37.088 64.4496 36.896C64.343 36.6933 64.1456 36.592 63.8576 36.592C63.559 36.592 63.351 36.6933 63.2336 36.896C63.127 37.088 63.0736 37.4187 63.0736 37.888V39.392C63.0736 39.8613 63.127 40.192 63.2336 40.384C63.351 40.576 63.559 40.672 63.8576 40.672Z" fill="#E9E7DD"/>
<path d="M31.4554 48.0648H32.3654V54.1548H36.2354V54.9648H31.4554V48.0648ZM36.9929 48.0748H37.8429V48.9948H36.9929V48.0748ZM36.9929 49.8448H37.8429V54.9648H36.9929V49.8448ZM42.8767 54.2948C42.71 54.5415 42.4833 54.7315 42.1967 54.8648C41.9167 54.9915 41.5967 55.0548 41.2367 55.0548C40.5833 55.0548 40.0667 54.8515 39.6867 54.4448C39.3067 54.0315 39.1167 53.4415 39.1167 52.6748V52.1248C39.1167 51.3648 39.3067 50.7815 39.6867 50.3748C40.0733 49.9615 40.5867 49.7548 41.2267 49.7548C41.5867 49.7548 41.91 49.8248 42.1967 49.9648C42.4833 50.0982 42.71 50.2848 42.8767 50.5248V49.8448H43.7167V56.5848H42.8767V54.2948ZM41.3967 54.3048C41.8633 54.3048 42.2267 54.1648 42.4867 53.8848C42.7467 53.6048 42.8767 53.2248 42.8767 52.7448V52.0748C42.8767 51.5882 42.7433 51.2048 42.4767 50.9248C42.2167 50.6448 41.8533 50.5048 41.3867 50.5048C40.9333 50.5048 40.5833 50.6448 40.3367 50.9248C40.09 51.1982 39.9667 51.6148 39.9667 52.1748V52.6348C39.9667 53.1948 40.09 53.6148 40.3367 53.8948C40.59 54.1682 40.9433 54.3048 41.3967 54.3048ZM47.2475 55.0348C46.5408 55.0348 46.0008 54.8548 45.6275 54.4948C45.2541 54.1282 45.0675 53.6082 45.0675 52.9348V49.8448H45.9175V52.8448C45.9175 53.7982 46.3641 54.2748 47.2575 54.2748C47.7175 54.2748 48.0541 54.1582 48.2675 53.9248C48.4875 53.6848 48.5975 53.3248 48.5975 52.8448V49.8448H49.4475V52.9348C49.4475 53.6082 49.2575 54.1282 48.8775 54.4948C48.5041 54.8548 47.9608 55.0348 47.2475 55.0348ZM50.8601 48.0748H51.7101V48.9948H50.8601V48.0748ZM50.8601 49.8448H51.7101V54.9648H50.8601V49.8448ZM55.1039 55.0548C54.4505 55.0548 53.9339 54.8515 53.5539 54.4448C53.1739 54.0315 52.9839 53.4415 52.9839 52.6748V52.1248C52.9839 51.3648 53.1739 50.7782 53.5539 50.3648C53.9405 49.9515 54.4505 49.7448 55.0839 49.7448C55.4439 49.7448 55.7672 49.8148 56.0539 49.9548C56.3472 50.0948 56.5772 50.2848 56.7439 50.5248V48.0648H57.5839V54.9648H56.7439V54.2948C56.5772 54.5415 56.3539 54.7315 56.0739 54.8648C55.7939 54.9915 55.4705 55.0548 55.1039 55.0548ZM55.2639 54.3048C55.7305 54.3048 56.0939 54.1648 56.3539 53.8848C56.6139 53.6048 56.7439 53.2248 56.7439 52.7448V52.0748C56.7439 51.5882 56.6105 51.2048 56.3439 50.9248C56.0839 50.6448 55.7205 50.5048 55.2539 50.5048C54.8005 50.5048 54.4505 50.6448 54.2039 50.9248C53.9572 51.1982 53.8339 51.6148 53.8339 52.1748V52.6348C53.8339 53.1948 53.9572 53.6148 54.2039 53.8948C54.4572 54.1682 54.8105 54.3048 55.2639 54.3048Z" fill="#E9E7DD" fill-opacity="0.6"/>
<path d="M87.375 43.6875C87.375 67.8154 67.8154 87.375 43.6875 87.375C19.5596 87.375 0 67.8154 0 43.6875C0 19.5596 19.5596 0 43.6875 0C67.8154 0 87.375 19.5596 87.375 43.6875ZM10.6333 43.6875C10.6333 61.9428 25.4322 76.7417 43.6875 76.7417C61.9428 76.7417 76.7417 61.9428 76.7417 43.6875C76.7417 25.4322 61.9428 10.6333 43.6875 10.6333C25.4322 10.6333 10.6333 25.4322 10.6333 43.6875Z" fill="#D9D9D9" fill-opacity="0.15"/>
<path d="M54.359 80.2287C55.2291 83.208 53.5198 86.3672 50.4534 86.8479C44.205 87.8274 37.795 87.4419 31.6713 85.69C23.7395 83.4208 16.6123 78.9521 11.1145 72.801C5.61667 66.6499 1.97291 59.0678 0.604852 50.932C-0.763211 42.7962 0.200347 34.4394 3.38403 26.8284C6.56771 19.2175 11.8414 12.6636 18.5948 7.92504C25.3482 3.18651 33.3053 0.457066 41.5454 0.052548C49.7855 -0.35197 57.9717 1.58497 65.1567 5.63924C70.7039 8.76931 75.4793 13.0626 79.1693 18.1994C80.9801 20.7202 79.9309 24.1556 77.1986 25.628C74.4663 27.1005 71.0924 26.0395 69.1711 23.6018C66.5655 20.2961 63.3301 17.5143 59.6331 15.4283C54.2966 12.4171 48.2166 10.9785 42.0965 11.2789C35.9764 11.5794 30.0665 13.6066 25.0506 17.126C20.0347 20.6454 16.1179 25.5131 13.7533 31.1659C11.3887 36.8187 10.673 43.0256 11.6891 49.0682C12.7052 55.1108 15.4115 60.7422 19.4949 65.3107C23.5782 69.8793 28.8717 73.1983 34.7628 74.8836C38.844 76.0512 43.0964 76.4016 47.2797 75.9357C50.3644 75.5921 53.4889 77.2493 54.359 80.2287Z" fill="#33AAFF"/>
</svg>
