<svg width="14" height="13" viewBox="0 0 14 13" fill="none" xmlns="http://www.w3.org/2000/svg">
<path d="M3.16667 7.16667H1.16667C0.989856 7.16667 0.820286 7.09643 0.695262 6.9714C0.570238 6.84638 0.5 6.67681 0.5 6.5V1.16667C0.5 0.989856 0.570238 0.820287 0.695262 0.695262C0.820286 0.570238 0.989856 0.5 1.16667 0.5H9.16667C9.34348 0.5 9.51305 0.570238 9.63807 0.695262C9.7631 0.820287 9.83334 0.989856 9.83334 1.16667V3.16667" stroke="#E9E7DD" stroke-linecap="round" stroke-linejoin="round"/>
<path d="M6.50521 9.83073H3.83854C3.66173 9.83073 3.49216 9.76049 3.36714 9.63547C3.24211 9.51044 3.17188 9.34087 3.17188 9.16406V3.83073C3.17188 3.65392 3.24211 3.48435 3.36714 3.35932C3.49216 3.2343 3.66173 3.16406 3.83854 3.16406H11.8385C12.0154 3.16406 12.1849 3.2343 12.3099 3.35932C12.435 3.48435 12.5052 3.65392 12.5052 3.83073V5.4974" stroke="#E9E7DD" stroke-linecap="round" stroke-linejoin="round"/>
<path d="M9.16667 9.83073H13.1667M11.1667 7.83073V11.8307M6.5 6.4974C6.5 6.85102 6.64048 7.19016 6.89052 7.4402C7.14057 7.69025 7.47971 7.83073 7.83333 7.83073C8.18696 7.83073 8.52609 7.69025 8.77614 7.4402C9.02619 7.19016 9.16667 6.85102 9.16667 6.4974C9.16667 6.14377 9.02619 5.80464 8.77614 5.55459C8.52609 5.30454 8.18696 5.16406 7.83333 5.16406C7.47971 5.16406 7.14057 5.30454 6.89052 5.55459C6.64048 5.80464 6.5 6.14377 6.5 6.4974Z" stroke="#E9E7DD" stroke-linecap="round" stroke-linejoin="round"/>
</svg>
