<svg version="1.2" xmlns="http://www.w3.org/2000/svg" viewBox="0 0 118 118" width="118" height="118">
	<style>
		.s0 { opacity: .15;fill: #d9d9d9 } 
		.s1 { fill: #fc8d94 } 
		.s2 { fill: #9dddd5 } 
		.s3 { fill: #92b0ea } 
		.s4 { fill: #c8ad98 } 
		.s5 { fill: #edb37e } 
	</style>
	<path class="s0" d="m117.67 58.99c0 32.41-26.27 58.68-58.68 58.68-32.41 0-58.68-26.27-58.68-58.68 0-32.41 26.27-58.68 58.68-58.68 32.41 0 58.68 26.27 58.68 58.68zm-95.83 0c0 20.52 16.64 37.15 37.15 37.15 20.52 0 37.15-16.63 37.15-37.15 0-20.51-16.63-37.15-37.15-37.15-20.51 0-37.15 16.64-37.15 37.15z"/>
	<path class="s1" d="m7.58 30.69c3.94-7.15 9.32-13.4 15.81-18.35 6.49-4.95 13.94-8.5 21.87-10.41 7.93-1.9 16.18-2.14 24.21-0.68 8.03 1.46 15.67 4.58 22.42 9.15 6.76 4.58 12.49 10.52 16.82 17.43 4.33 6.92 7.18 14.66 8.35 22.74 1.17 8.08 0.64 16.31-1.55 24.17-2.19 7.86-6 15.18-11.18 21.49l-16.64-13.67c3.28-3.99 5.69-8.62 7.08-13.6 1.38-4.98 1.72-10.19 0.98-15.3-0.74-5.11-2.54-10.02-5.29-14.4-2.74-4.37-6.36-8.13-10.64-11.03-4.28-2.9-9.11-4.87-14.2-5.79-5.08-0.93-10.3-0.78-15.32 0.43-5.03 1.21-9.74 3.45-13.85 6.58-4.11 3.14-7.52 7.09-10.01 11.62z"/>
	<path class="s2" d="m42.41 115.18c-8.12-2.37-15.62-6.46-22-12-6.38-5.53-11.5-12.38-14.99-20.08l19.61-8.89c2.21 4.87 5.45 9.2 9.49 12.71 4.04 3.5 8.79 6.09 13.92 7.59z"/>
	<path class="s3" d="m5.65 83.6c-5.47-11.78-6.88-25.04-4.01-37.7l21 4.76c-1.82 8.02-0.93 16.41 2.54 23.87z"/>
	<path class="s4" d="m1.57 46.18c1.32-5.94 3.55-11.63 6.61-16.89l18.6 10.86c-1.94 3.32-3.35 6.93-4.18 10.69z"/>
	<path class="s5" d="m104.13 96.32c-7.7 9.31-18.09 16.02-29.74 19.21-11.66 3.18-24.01 2.7-35.38-1.4l7.3-20.26c7.19 2.6 15.02 2.91 22.39 0.89 7.38-2.02 13.96-6.27 18.83-12.16z"/>
</svg>