<svg width="30" height="30" viewBox="0 0 30 30" fill="none" xmlns="http://www.w3.org/2000/svg">
<rect width="29.6222" height="29.6222" rx="14.8111" fill="#23B05B"/>
<path d="M19.0872 11.7129C19.1516 11.6484 19.2027 11.5718 19.2376 11.4876C19.2724 11.4033 19.2903 11.313 19.2902 11.2219C19.2902 11.1307 19.2721 11.0404 19.2372 10.9562C19.2022 10.872 19.1511 10.7955 19.0865 10.7311C19.022 10.6667 18.9455 10.6156 18.8612 10.5807C18.777 10.5459 18.6867 10.528 18.5955 10.5281C18.5043 10.5281 18.414 10.5461 18.3298 10.5811C18.2456 10.616 18.1691 10.6672 18.1047 10.7317L19.0872 11.7129ZM17.8566 11.9623L18.3475 12.4532L18.3479 12.4529L17.8566 11.9623ZM14.0808 14.7563C13.9506 14.8865 13.8774 15.0631 13.8774 15.2472C13.8774 15.4314 13.9506 15.608 14.0808 15.7382C14.211 15.8684 14.3876 15.9415 14.5717 15.9415C14.7558 15.9415 14.9324 15.8684 15.0626 15.7382L14.0808 14.7563ZM15.0566 15.7442C15.1868 15.614 15.2599 15.4374 15.2599 15.2533C15.2599 15.0692 15.1868 14.8926 15.0566 14.7624C14.9264 14.6322 14.7498 14.559 14.5656 14.559C14.3815 14.559 14.2049 14.6322 14.0747 14.7624L15.0566 15.7442ZM10.5291 18.308C10.3989 18.4382 10.3258 18.6148 10.3258 18.7989C10.3258 18.983 10.3989 19.1596 10.5291 19.2898C10.6593 19.42 10.8359 19.4932 11.02 19.4932C11.2042 19.4932 11.3807 19.42 11.5109 19.2898L10.5291 18.308ZM18.1047 10.7317L18.0924 10.744L19.0748 11.7254L19.0872 11.7129L18.1047 10.7317ZM18.0924 10.744L17.9468 10.8896L18.9295 11.8707L19.0748 11.7254L18.0924 10.744ZM17.9468 10.8896L17.8015 11.035L18.784 12.0162L18.9295 11.8707L17.9468 10.8896ZM17.8015 11.035L17.656 11.1808L18.6387 12.1618L18.784 12.0162L17.8015 11.035ZM17.656 11.1808L17.5108 11.3262L18.4933 12.3074L18.6387 12.1618L17.656 11.1808ZM17.5108 11.3262L17.3654 11.4717L18.3479 12.4529L18.4933 12.3074L17.5108 11.3262ZM17.3657 11.4714L14.0808 14.7563L15.0626 15.7382L18.3475 12.4532L17.3657 11.4714ZM14.0747 14.7624L10.5291 18.308L11.5109 19.2898L15.0566 15.7442L14.0747 14.7624Z" fill="#131927"/>
<path d="M19.1581 18.7833L19.1579 11.8526C19.1579 11.6931 19.1265 11.5351 19.0654 11.3877C19.0044 11.2402 18.9149 11.1063 18.8021 10.9935C18.6892 10.8806 18.5553 10.7911 18.4079 10.7301C18.2604 10.669 18.1024 10.6376 17.9429 10.6376L11.0122 10.6378" stroke="#131927" stroke-width="1.38854" stroke-linecap="round" stroke-linejoin="round"/>
</svg>
