<svg width="17" height="17" viewBox="0 0 17 17" fill="none" xmlns="http://www.w3.org/2000/svg">
<path d="M9.10328 0.582031H7.55325C4.26487 0.582031 2.62106 0.582031 1.59959 1.6035C0.578125 2.62497 0.578125 4.26955 0.578125 7.55716C0.578125 10.8448 0.578125 12.4893 1.59959 13.5108C2.62106 14.5323 4.26564 14.5323 7.55325 14.5323H9.10328C12.3917 14.5323 14.0355 14.5323 15.0569 13.5108C16.0784 12.4893 16.0784 10.8448 16.0784 7.55716C16.0784 4.26955 16.0784 2.62497 15.0569 1.6035C14.0355 0.582031 12.3909 0.582031 9.10328 0.582031Z" stroke="#E9E7DD" stroke-opacity="0.8" stroke-width="1.16252"/>
<path d="M12.2127 10.665C12.9877 10.2542 12.9877 9.59156 12.9877 8.26706V6.86274C12.9877 5.53824 12.9877 4.8756 12.2127 4.46484M12.9877 16.0901V14.54M3.6875 16.0901V14.54" stroke="#E9E7DD" stroke-opacity="0.8" stroke-width="1.16252" stroke-linecap="round"/>
<path d="M6.40005 6.01487C5.53513 6.01487 4.83452 6.70851 4.83452 7.5649C4.83554 7.76947 4.87684 7.97184 4.95606 8.16045C5.03529 8.34906 5.15088 8.52022 5.29626 8.66415C5.44163 8.80808 5.61393 8.92197 5.80332 8.99932C5.99271 9.07666 6.19548 9.11595 6.40005 9.11493C6.60462 9.11595 6.80739 9.07666 6.99678 8.99932C7.18617 8.92197 7.35847 8.80808 7.50384 8.66415C7.64921 8.52022 7.76481 8.34906 7.84404 8.16045C7.92326 7.97184 7.96456 7.76947 7.96558 7.5649C7.96558 6.70851 7.26497 6.01487 6.40005 6.01487ZM6.40005 9.11493V10.665M6.40005 6.01487V4.46484M5.04377 8.33991L3.6875 9.11493M9.1126 6.01487L7.75632 6.78989M7.75632 8.33991L9.1126 9.11493M3.6875 6.01487L5.04377 6.78989" stroke="#E9E7DD" stroke-opacity="0.8" stroke-width="1.16252" stroke-linecap="round" stroke-linejoin="round"/>
</svg>
