<svg width="13" height="15" viewBox="0 0 13 15" fill="none" xmlns="http://www.w3.org/2000/svg">
<path d="M6.50521 5.16276C5.76854 5.16276 5.17188 5.61076 5.17188 6.16276C5.17188 6.71476 5.76854 7.16276 6.50521 7.16276C7.24187 7.16276 7.83854 7.61076 7.83854 8.16276C7.83854 8.71476 7.24187 9.16276 6.50521 9.16276M6.50521 5.16276C7.08521 5.16276 7.57987 5.44076 7.76254 5.82943M6.50521 5.16276V4.49609M6.50521 9.16276C5.92521 9.16276 5.43054 8.88476 5.24788 8.49609M6.50521 9.16276V9.82943" stroke="#E9E7DD" stroke-linecap="round"/>
<path d="M12.5 6.622V4.68667C12.5 3.59333 12.5 3.04667 12.2307 2.69C11.9613 2.33333 11.352 2.16067 10.134 1.814C9.39936 1.603 8.68011 1.34172 7.98133 1.032C7.182 0.677333 6.78267 0.5 6.5 0.5C6.21733 0.5 5.818 0.677333 5.01867 1.032C4.432 1.292 3.69867 1.57733 2.866 1.814C1.648 2.16067 1.03933 2.334 0.769333 2.69C0.5 3.04667 0.5 3.59333 0.5 4.68667V6.622C0.5 10.372 3.87533 12.622 5.56267 13.5127C5.96733 13.726 6.16933 13.8333 6.5 13.8333C6.83067 13.8333 7.03267 13.7267 7.43733 13.5133C9.12467 12.6213 12.5 10.372 12.5 6.622Z" stroke="#E9E7DD" stroke-linecap="round"/>
</svg>
