<svg width="13" height="13" viewBox="0 0 13 13" fill="none" xmlns="http://www.w3.org/2000/svg">
<g clip-path="url(#clip0_9647_72722)">
<path d="M1.07812 7.58004C1.07812 9.32529 2.53304 10.7396 4.32813 10.7396C6.12321 10.7396 7.57813 9.32529 7.57813 7.58004C7.57813 6.50754 7.02888 5.56017 6.18875 4.98925C6.02138 4.8755 5.95313 4.78017 5.95313 4.57108C5.95313 4.13613 5.95312 3.91892 5.88108 3.74667C5.63625 3.16167 5.05396 3.15625 4.49821 3.15625H4.15804C3.60229 3.15625 3.02054 3.16167 2.77517 3.74667C2.70313 3.91892 2.70313 4.13667 2.70313 4.57108C2.70313 4.77042 2.64029 4.87171 2.4675 4.98925C1.62738 5.56017 1.07812 6.50754 1.07812 7.58004Z" stroke="#E9E7DD" stroke-width="0.6" stroke-linecap="round" stroke-linejoin="round"/>
<path d="M7.85979 4.27012C8.06238 4.23546 8.28175 4.23438 8.49733 4.23438H8.8375C9.39325 4.23438 9.975 4.23979 10.2204 4.82479C10.2924 4.9965 10.2924 5.21425 10.2924 5.64921C10.2924 5.85829 10.3607 5.95308 10.528 6.06737C11.3676 6.63829 11.9174 7.58567 11.9174 8.65817C11.9169 10.4029 10.4625 11.8177 8.66688 11.8177C8.14767 11.8189 7.6355 11.6977 7.17188 11.464" stroke="#E9E7DD" stroke-width="0.6" stroke-linecap="round" stroke-linejoin="round"/>
<path d="M4.33333 8.57292C4.93164 8.57292 5.41667 8.08789 5.41667 7.48958C5.41667 6.89127 4.93164 6.40625 4.33333 6.40625C3.73502 6.40625 3.25 6.89127 3.25 7.48958C3.25 8.08789 3.73502 8.57292 4.33333 8.57292Z" stroke="#E9E7DD" stroke-width="0.6" stroke-linecap="round" stroke-linejoin="round"/>
<path d="M8.7245 9.64947C8.95743 9.63618 9.17984 9.54805 9.35866 9.39819C9.53747 9.24833 9.66312 9.04474 9.71693 8.81772C9.77073 8.5907 9.7498 8.35238 9.65727 8.13821C9.56473 7.92404 9.40552 7.74547 9.20333 7.62905M8.66221 4.22474V3.65647C8.66221 2.76218 8.66221 2.31476 8.43254 1.99139C8.20342 1.66747 7.80963 1.55914 7.02096 1.34193L6.95596 1.32405C5.77892 1.00014 5.19013 0.838178 4.78388 1.15722C4.75799 1.17756 4.73305 1.19907 4.70913 1.22168C4.32888 1.57864 4.21094 1.70223 4.21094 3.03906" stroke="#E9E7DD" stroke-width="0.6" stroke-linecap="round" stroke-linejoin="round"/>
</g>
<defs>
<clipPath id="clip0_9647_72722">
<rect width="13" height="13" fill="white"/>
</clipPath>
</defs>
</svg>
