<svg width="16" height="16" viewBox="0 0 16 16" fill="none" xmlns="http://www.w3.org/2000/svg">
<path d="M10.5 7V4C10.5 3.33696 10.2366 2.70107 9.76777 2.23223C9.29893 1.76339 8.66304 1.5 8 1.5C7.33696 1.5 6.70107 1.76339 6.23223 2.23223C5.76339 2.70107 5.5 3.33696 5.5 4V7M8 10C7.86739 10 7.74021 10.0527 7.64645 10.1464C7.55268 10.2402 7.5 10.3674 7.5 10.5C7.5 10.6326 7.55268 10.7598 7.64645 10.8536C7.74021 10.9473 7.86739 11 8 11C8.13261 11 8.25979 10.9473 8.35355 10.8536C8.44732 10.7598 8.5 10.6326 8.5 10.5C8.5 10.3674 8.44732 10.2402 8.35355 10.1464C8.25979 10.0527 8.13261 10 8 10ZM8 10V12.5M3.5 7.5H12.5V14.5H3.5V7.5Z" stroke="#C8AD98"/>
</svg>
