<svg width="18" height="18" viewBox="0 0 18 18" fill="none" xmlns="http://www.w3.org/2000/svg">
<path d="M7.99812 7.99219C7.73056 8.25835 7.57952 8.61979 7.57812 8.99719C7.57813 9.37512 7.72826 9.73758 7.9955 10.0048C8.26274 10.2721 8.62519 10.4222 9.00312 10.4222C9.38052 10.4208 9.74196 10.2697 10.0081 10.0022" stroke="#E9E7DD" stroke-opacity="0.8" stroke-linecap="round" stroke-linejoin="round"/>
<path d="M8.99375 4.72656C8.14824 4.72656 7.32171 4.97729 6.61869 5.44703C5.91567 5.91677 5.36773 6.58444 5.04417 7.36559C4.7206 8.14674 4.63594 9.0063 4.80089 9.83557C4.96585 10.6648 5.373 11.4266 5.97087 12.0244C6.56874 12.6223 7.33047 13.0295 8.15974 13.1944C8.98901 13.3594 9.84857 13.2747 10.6297 12.9511C11.4109 12.6276 12.0785 12.0796 12.5483 11.3766C13.018 10.6736 13.2688 9.84708 13.2688 9.00156" stroke="#E9E7DD" stroke-opacity="0.8" stroke-linecap="round" stroke-linejoin="round"/>
<path d="M9 1.875C7.59081 1.875 6.21327 2.29287 5.04157 3.07578C3.86986 3.85868 2.95664 4.97146 2.41736 6.27338C1.87809 7.5753 1.73699 9.0079 2.01191 10.39C2.28683 11.7721 2.96542 13.0417 3.96187 14.0381C4.95832 15.0346 6.22787 15.7132 7.60998 15.9881C8.9921 16.263 10.4247 16.1219 11.7266 15.5826C13.0285 15.0434 14.1413 14.1301 14.9242 12.9584C15.7071 11.7867 16.125 10.4092 16.125 9M11.6438 6.357L9.7125 8.2875" stroke="#E9E7DD" stroke-opacity="0.8" stroke-linecap="round" stroke-linejoin="round"/>
<path d="M15.7069 4.38374L13.2769 4.72574L13.6189 2.29574C13.6214 2.26752 13.6154 2.23919 13.6017 2.21437C13.5881 2.18955 13.5673 2.16937 13.5421 2.15641C13.5169 2.14344 13.4884 2.13829 13.4603 2.1416C13.4321 2.14491 13.4056 2.15654 13.3841 2.17499L11.7731 3.77774C11.6077 3.94441 11.4859 4.14939 11.4188 4.37445C11.3517 4.59951 11.3412 4.83767 11.3884 5.06774L11.6449 6.35774L12.9349 6.61349C13.1649 6.66063 13.4031 6.65017 13.6282 6.58305C13.8532 6.51592 14.0582 6.39421 14.2249 6.22874L15.8269 4.61849C15.8454 4.59694 15.857 4.57035 15.8603 4.54213C15.8636 4.51391 15.8584 4.48534 15.8454 4.46011C15.8323 4.43487 15.812 4.41412 15.787 4.40051C15.7621 4.3869 15.7337 4.38106 15.7054 4.38374" stroke="#E9E7DD" stroke-opacity="0.8" stroke-linecap="round" stroke-linejoin="round"/>
</svg>
