<svg width="19" height="22" viewBox="0 0 19 22" fill="none" xmlns="http://www.w3.org/2000/svg">
<path d="M6.3178 6.30469C5.9922 6.57102 5.77573 6.94763 5.70946 7.36302C5.68219 7.49117 5.62509 7.61108 5.5428 7.71302C5.46401 7.81894 5.36119 7.90463 5.2428 7.96302L4.58446 8.27969C4.0567 8.53904 3.58849 8.90509 3.20946 9.35469C2.0428 10.7464 2.0428 11.3714 2.0428 13.7464C2.0428 14.8214 0.90113 15.7964 0.60113 16.763C0.417797 17.338 0.317797 18.638 1.83446 18.638H13.1511C13.3728 18.6477 13.5933 18.6018 13.7928 18.5047C13.9915 18.4057 14.1631 18.2599 14.2928 18.0797C14.4161 17.898 14.4928 17.6889 14.5178 17.4714C14.5366 17.249 14.4994 17.0255 14.4095 16.8214C14.1095 15.913 12.9178 14.8297 12.9178 13.7547V11.9797" stroke="#E9E7DD" stroke-linecap="round" stroke-linejoin="round"/>
<path d="M10.1997 18.6328C10.2022 18.9886 10.1372 19.342 10.008 19.6745C9.86829 20.0036 9.66753 20.3033 9.41634 20.5578C9.16228 20.8126 8.85929 21.0134 8.5256 21.148C8.1919 21.2826 7.83442 21.3483 7.47467 21.3411C7.11419 21.3434 6.75699 21.2725 6.42467 21.1328C5.75837 20.8539 5.22855 20.3241 4.94967 19.6578C4.81895 19.3321 4.75382 18.9838 4.758 18.6328" stroke="#E9E7DD" stroke-linecap="round" stroke-linejoin="round"/>
<path d="M12.418 11C15.1298 11 17.3281 8.80165 17.3281 6.08984C17.3281 3.37804 15.1298 1.17969 12.418 1.17969C9.70616 1.17969 7.50781 3.37804 7.50781 6.08984C7.50781 8.80165 9.70616 11 12.418 11Z" fill="#23B05B" stroke="#23B05B" stroke-width="2.35687"/>
<path d="M12.5244 9.78969C11.7844 9.78969 11.2177 9.62969 10.8244 9.30969C10.431 8.98302 10.2344 8.51635 10.2344 7.90969V7.79969H11.4544V7.87969C11.4544 8.13969 11.5444 8.33969 11.7244 8.47969C11.9044 8.61302 12.1644 8.67969 12.5044 8.67969C12.8377 8.67969 13.0944 8.59969 13.2744 8.43969C13.4544 8.27302 13.5444 8.04302 13.5444 7.74969V7.59969C13.5444 7.28635 13.4477 7.05635 13.2544 6.90969C13.0677 6.75635 12.781 6.67969 12.3944 6.67969H12.0044V5.56969H12.3844C12.7244 5.56969 12.981 5.49635 13.1544 5.34969C13.3344 5.20302 13.4244 4.99302 13.4244 4.71969V4.59969C13.4244 4.33969 13.341 4.13969 13.1744 3.99969C13.0077 3.85302 12.771 3.77969 12.4644 3.77969C12.151 3.77969 11.911 3.84969 11.7444 3.98969C11.5777 4.12969 11.4944 4.32969 11.4944 4.58969V4.67969H10.2944V4.58969C10.2944 3.96969 10.4844 3.49635 10.8644 3.16969C11.2444 2.83635 11.7877 2.66969 12.4944 2.66969C13.1877 2.66969 13.731 2.82969 14.1244 3.14969C14.5177 3.46969 14.7144 3.90969 14.7144 4.46969V4.59969C14.7144 4.91969 14.631 5.19969 14.4644 5.43969C14.3044 5.67969 14.0677 5.86969 13.7544 6.00969C14.1077 6.12969 14.3744 6.32635 14.5544 6.59969C14.741 6.87302 14.8344 7.20635 14.8344 7.59969V7.75969C14.8344 8.38635 14.6244 8.88302 14.2044 9.24969C13.791 9.60969 13.231 9.78969 12.5244 9.78969Z" fill="#072312"/>
</svg>
