<svg width="11" height="13" viewBox="0 0 11 13" fill="none" xmlns="http://www.w3.org/2000/svg">
<path d="M2.63021 12.6341H8.24087C8.85971 12.6341 9.45321 12.3883 9.89079 11.9507C10.3284 11.5131 10.5742 10.9196 10.5742 10.3008V6.61411C10.5744 5.99535 10.3289 5.40184 9.89154 4.96411L5.91221 0.984115C5.69552 0.76745 5.43828 0.595587 5.15517 0.478341C4.87206 0.361094 4.56863 0.300759 4.26221 0.300781H2.63021C2.01137 0.300781 1.41788 0.546614 0.980293 0.984199C0.542708 1.42178 0.296875 2.01528 0.296875 2.63411V10.3008C0.296875 10.9196 0.542708 11.5131 0.980293 11.9507C1.41788 12.3883 2.01137 12.6341 2.63021 12.6341Z" stroke="#E9E7DD" stroke-width="0.6" stroke-linecap="round" stroke-linejoin="round"/>
<path d="M5.22656 0.539062V4.3124C5.22656 4.66602 5.36704 5.00516 5.61709 5.2552C5.86714 5.50525 6.20627 5.64573 6.5599 5.64573H10.3346" stroke="#E9E7DD" stroke-width="0.6" stroke-linecap="round" stroke-linejoin="round"/>
<path d="M2.26562 9.46875V8.80208M2.26562 8.80208V7.46875H2.93229C3.1091 7.46875 3.27867 7.53899 3.4037 7.66401C3.52872 7.78904 3.59896 7.95861 3.59896 8.13542C3.59896 8.31223 3.52872 8.4818 3.4037 8.60682C3.27867 8.73185 3.1091 8.80208 2.93229 8.80208H2.26562ZM7.59896 9.46875V8.63542M7.59896 8.63542V7.46875H8.59896M7.59896 8.63542H8.59896M4.93229 9.46875V7.46875H5.26563C5.53084 7.46875 5.7852 7.57411 5.97273 7.76164C6.16027 7.94918 6.26563 8.20353 6.26563 8.46875C6.26563 8.73397 6.16027 8.98832 5.97273 9.17586C5.7852 9.36339 5.53084 9.46875 5.26563 9.46875H4.93229Z" stroke="#E9E7DD" stroke-width="0.6" stroke-linecap="round" stroke-linejoin="round"/>
</svg>
