<svg width="178" height="11" viewBox="0 0 178 11" fill="none" xmlns="http://www.w3.org/2000/svg">
<path d="M0.710938 4.54057C0.316974 4.54057 -0.00239581 4.85994 -0.00239581 5.25391C-0.00239581 5.64787 0.316974 5.96724 0.710938 5.96724V5.25391V4.54057ZM177.409 5.75831C177.687 5.47974 177.687 5.02808 177.409 4.7495L172.869 0.209878C172.59 -0.068696 172.139 -0.068696 171.86 0.209878C171.582 0.488452 171.582 0.94011 171.86 1.21868L175.895 5.25391L171.86 9.28913C171.582 9.5677 171.582 10.0194 171.86 10.2979C172.139 10.5765 172.59 10.5765 172.869 10.2979L177.409 5.75831ZM0.710938 5.25391V5.96724H176.904V5.25391V4.54057H0.710938V5.25391Z" fill="#E9E7DD" fill-opacity="0.2"/>
</svg>
