<svg width="10" height="10" viewBox="0 0 10 10" fill="none" xmlns="http://www.w3.org/2000/svg">
<path d="M9.11403 4.12028H2.13278L5.18278 1.07028C5.42653 0.826527 5.42653 0.426527 5.18278 0.182777C5.12496 0.124838 5.05628 0.0788704 4.98067 0.047507C4.90506 0.0161436 4.82401 0 4.74215 0C4.6603 0 4.57925 0.0161436 4.50364 0.047507C4.42803 0.0788704 4.35935 0.124838 4.30153 0.182777L0.182778 4.30153C0.124838 4.35935 0.0788707 4.42803 0.0475073 4.50364C0.0161439 4.57925 0 4.6603 0 4.74215C0 4.82401 0.0161439 4.90506 0.0475073 4.98067C0.0788707 5.05628 0.124838 5.12496 0.182778 5.18278L4.30153 9.30153C4.35939 9.35939 4.42809 9.40529 4.50369 9.43661C4.57929 9.46792 4.66032 9.48404 4.74215 9.48404C4.82398 9.48404 4.90501 9.46792 4.98062 9.43661C5.05622 9.40529 5.12491 9.35939 5.18278 9.30153C5.24064 9.24366 5.28654 9.17497 5.31786 9.09937C5.34917 9.02376 5.36529 8.94273 5.36529 8.8609C5.36529 8.77907 5.34917 8.69804 5.31786 8.62244C5.28654 8.54683 5.24064 8.47814 5.18278 8.42028L2.13278 5.37028H9.11403C9.45778 5.37028 9.73903 5.08903 9.73903 4.74528C9.73903 4.40153 9.45778 4.12028 9.11403 4.12028Z" fill="#E9E7DD" fill-opacity="0.6"/>
</svg>
