<svg width="382" height="189" viewBox="0 0 382 189" fill="none" xmlns="http://www.w3.org/2000/svg">
<path d="M6.20631 10.992C5.79831 11.376 5.24631 11.592 4.52631 11.652V12.708H3.72231V11.664C3.00231 11.616 2.46231 11.4 2.07831 11.016C1.69431 10.644 1.47831 10.116 1.44231 9.432H2.43831C2.47431 9.84 2.59431 10.14 2.79831 10.344C3.00231 10.56 3.31431 10.692 3.72231 10.74V8.208L3.60231 8.184C2.93031 8.064 2.43831 7.848 2.10231 7.536C1.76631 7.224 1.59831 6.768 1.59831 6.192C1.59831 5.592 1.77831 5.112 2.15031 4.74C2.52231 4.368 3.05031 4.152 3.72231 4.08V3.108H4.52631V4.068C5.17431 4.128 5.67831 4.332 6.05031 4.692C6.42231 5.052 6.62631 5.544 6.67431 6.18H5.67831C5.64231 5.82 5.53431 5.544 5.34231 5.352C5.15031 5.16 4.88631 5.028 4.52631 4.98V7.356L4.81431 7.404C5.46231 7.524 5.96631 7.752 6.30231 8.088C6.63831 8.424 6.80631 8.88 6.80631 9.468C6.80631 10.116 6.60231 10.62 6.20631 10.992ZM2.89431 6.84C3.06231 7.008 3.33831 7.14 3.72231 7.212V4.98C2.99031 5.076 2.63031 5.46 2.63031 6.108C2.63031 6.42 2.71431 6.672 2.89431 6.84ZM5.77431 9.54C5.77431 9.192 5.67831 8.928 5.48631 8.748C5.29431 8.58 4.97031 8.448 4.52631 8.352V10.752C5.35431 10.68 5.77431 10.272 5.77431 9.54ZM9.59697 4.908L7.83297 6.012V4.848L9.59697 3.72H10.689V12H9.59697V4.908ZM13.0086 11.532C12.5766 11.148 12.3726 10.644 12.3726 10.02V9.924H13.4166V9.984C13.4166 10.32 13.5366 10.608 13.7766 10.824C14.0166 11.052 14.3646 11.16 14.8326 11.16C15.7926 11.16 16.2846 10.62 16.2846 9.54V9.12C16.2846 8.592 16.1646 8.184 15.9246 7.908C15.6846 7.632 15.3246 7.488 14.8686 7.488C14.5566 7.488 14.2806 7.56 14.0646 7.704C13.8366 7.848 13.6686 8.04 13.5606 8.304H12.5046V3.72H17.1366V4.692H13.4766V7.14C13.6566 6.96 13.8846 6.816 14.1726 6.708C14.4486 6.6 14.7486 6.54 15.0606 6.54C15.7806 6.54 16.3446 6.768 16.7526 7.2C17.1606 7.644 17.3646 8.268 17.3646 9.072V9.588C17.3646 10.392 17.1366 11.016 16.6926 11.46C16.2366 11.904 15.6126 12.12 14.8086 12.12C14.0286 12.12 13.4286 11.928 13.0086 11.532ZM27.1342 3.72V12H26.0542V5.736L23.4262 10.356H22.6582L20.0302 5.736V12H18.9382V3.72H20.0302L23.0422 9.096L26.0542 3.72H27.1342Z" fill="#E9E7DD" fill-opacity="0.4"/>
<path d="M6.05397 62.992C5.64597 63.376 5.09397 63.592 4.37397 63.652V64.708H3.56997V63.664C2.84997 63.616 2.30997 63.4 1.92597 63.016C1.54197 62.644 1.32597 62.116 1.28997 61.432H2.28597C2.32197 61.84 2.44197 62.14 2.64597 62.344C2.84997 62.56 3.16197 62.692 3.56997 62.74V60.208L3.44997 60.184C2.77797 60.064 2.28597 59.848 1.94997 59.536C1.61397 59.224 1.44597 58.768 1.44597 58.192C1.44597 57.592 1.62597 57.112 1.99797 56.74C2.36997 56.368 2.89797 56.152 3.56997 56.08V55.108H4.37397V56.068C5.02197 56.128 5.52597 56.332 5.89797 56.692C6.26997 57.052 6.47397 57.544 6.52197 58.18H5.52597C5.48997 57.82 5.38197 57.544 5.18997 57.352C4.99797 57.16 4.73397 57.028 4.37397 56.98V59.356L4.66197 59.404C5.30997 59.524 5.81397 59.752 6.14997 60.088C6.48597 60.424 6.65397 60.88 6.65397 61.468C6.65397 62.116 6.44997 62.62 6.05397 62.992ZM2.74197 58.84C2.90997 59.008 3.18597 59.14 3.56997 59.212V56.98C2.83797 57.076 2.47797 57.46 2.47797 58.108C2.47797 58.42 2.56197 58.672 2.74197 58.84ZM5.62197 61.54C5.62197 61.192 5.52597 60.928 5.33397 60.748C5.14197 60.58 4.81797 60.448 4.37397 60.352V62.752C5.20197 62.68 5.62197 62.272 5.62197 61.54ZM9.44463 56.908L7.68063 58.012V56.848L9.44463 55.72H10.5366V64H9.44463V56.908ZM12.8683 63.364C12.4363 62.86 12.2203 62.104 12.2203 61.096V58.564C12.2203 57.592 12.4363 56.86 12.8683 56.356C13.3003 55.852 13.9363 55.6 14.7883 55.6C15.6283 55.6 16.2763 55.852 16.7083 56.356C17.1403 56.86 17.3683 57.592 17.3683 58.564V61.096C17.3683 62.104 17.1403 62.86 16.7083 63.364C16.2763 63.868 15.6283 64.12 14.7883 64.12C13.9363 64.12 13.3003 63.868 12.8683 63.364ZM15.9283 62.644C16.1563 62.308 16.2763 61.756 16.2763 61.012V58.708C16.2763 57.964 16.1563 57.424 15.9163 57.088C15.6763 56.752 15.3043 56.572 14.7883 56.572C14.2723 56.572 13.9003 56.752 13.6603 57.088C13.4203 57.424 13.3123 57.964 13.3123 58.708V61.012C13.3123 61.756 13.4203 62.308 13.6603 62.644C13.9003 62.98 14.2723 63.148 14.7883 63.148C15.3163 63.148 15.6883 62.98 15.9283 62.644ZM27.1342 55.72V64H26.0542V57.736L23.4262 62.356H22.6582L20.0302 57.736V64H18.9382V55.72H20.0302L23.0422 61.096L26.0542 55.72H27.1342Z" fill="#E9E7DD" fill-opacity="0.4"/>
<path d="M10.554 114.992C10.146 115.376 9.59397 115.592 8.87397 115.652V116.708H8.06997V115.664C7.34997 115.616 6.80997 115.4 6.42597 115.016C6.04197 114.644 5.82597 114.116 5.78997 113.432H6.78597C6.82197 113.84 6.94197 114.14 7.14597 114.344C7.34997 114.56 7.66197 114.692 8.06997 114.74V112.208L7.94997 112.184C7.27797 112.064 6.78597 111.848 6.44997 111.536C6.11397 111.224 5.94597 110.768 5.94597 110.192C5.94597 109.592 6.12597 109.112 6.49797 108.74C6.86997 108.368 7.39797 108.152 8.06997 108.08V107.108H8.87397V108.068C9.52197 108.128 10.026 108.332 10.398 108.692C10.77 109.052 10.974 109.544 11.022 110.18H10.026C9.98997 109.82 9.88197 109.544 9.68997 109.352C9.49797 109.16 9.23397 109.028 8.87397 108.98V111.356L9.16197 111.404C9.80997 111.524 10.314 111.752 10.65 112.088C10.986 112.424 11.154 112.88 11.154 113.468C11.154 114.116 10.95 114.62 10.554 114.992ZM7.24197 110.84C7.40997 111.008 7.68597 111.14 8.06997 111.212V108.98C7.33797 109.076 6.97797 109.46 6.97797 110.108C6.97797 110.42 7.06197 110.672 7.24197 110.84ZM10.122 113.54C10.122 113.192 10.026 112.928 9.83397 112.748C9.64197 112.58 9.31797 112.448 8.87397 112.352V114.752C9.70197 114.68 10.122 114.272 10.122 113.54ZM13.0086 115.532C12.5766 115.148 12.3726 114.644 12.3726 114.02V113.924H13.4166V113.984C13.4166 114.32 13.5366 114.608 13.7766 114.824C14.0166 115.052 14.3646 115.16 14.8326 115.16C15.7926 115.16 16.2846 114.62 16.2846 113.54V113.12C16.2846 112.592 16.1646 112.184 15.9246 111.908C15.6846 111.632 15.3246 111.488 14.8686 111.488C14.5566 111.488 14.2806 111.56 14.0646 111.704C13.8366 111.848 13.6686 112.04 13.5606 112.304H12.5046V107.72H17.1366V108.692H13.4766V111.14C13.6566 110.96 13.8846 110.816 14.1726 110.708C14.4486 110.6 14.7486 110.54 15.0606 110.54C15.7806 110.54 16.3446 110.768 16.7526 111.2C17.1606 111.644 17.3646 112.268 17.3646 113.072V113.588C17.3646 114.392 17.1366 115.016 16.6926 115.46C16.2366 115.904 15.6126 116.12 14.8086 116.12C14.0286 116.12 13.4286 115.928 13.0086 115.532ZM27.1342 107.72V116H26.0542V109.736L23.4262 114.356H22.6582L20.0302 109.736V116H18.9382V107.72H20.0302L23.0422 113.096L26.0542 107.72H27.1342Z" fill="#E9E7DD" fill-opacity="0.4"/>
<path d="M22.7941 167.364C22.3621 166.86 22.1461 166.104 22.1461 165.096V162.564C22.1461 161.592 22.3621 160.86 22.7941 160.356C23.2261 159.852 23.8621 159.6 24.7141 159.6C25.5541 159.6 26.2021 159.852 26.6341 160.356C27.0661 160.86 27.2941 161.592 27.2941 162.564V165.096C27.2941 166.104 27.0661 166.86 26.6341 167.364C26.2021 167.868 25.5541 168.12 24.7141 168.12C23.8621 168.12 23.2261 167.868 22.7941 167.364ZM25.8541 166.644C26.0821 166.308 26.2021 165.756 26.2021 165.012V162.708C26.2021 161.964 26.0821 161.424 25.8421 161.088C25.6021 160.752 25.2301 160.572 24.7141 160.572C24.1981 160.572 23.8261 160.752 23.5861 161.088C23.3461 161.424 23.2381 161.964 23.2381 162.708V165.012C23.2381 165.756 23.3461 166.308 23.5861 166.644C23.8261 166.98 24.1981 167.148 24.7141 167.148C25.2421 167.148 25.6141 166.98 25.8541 166.644Z" fill="#E9E7DD" fill-opacity="0.4"/>
<path d="M104.232 179.72H105.372L107.808 186.524L110.208 179.72H111.348L108.264 188H107.352L104.232 179.72ZM112.601 185.18V185.228C112.601 186.56 113.213 187.22 114.461 187.22C114.929 187.22 115.289 187.112 115.553 186.896C115.817 186.68 115.949 186.392 115.961 186.056V186.02H116.969V186.068C116.957 186.452 116.849 186.8 116.645 187.112C116.441 187.424 116.153 187.664 115.769 187.844C115.385 188.024 114.941 188.108 114.437 188.108C113.537 188.108 112.841 187.868 112.337 187.364C111.833 186.86 111.581 186.128 111.581 185.168V184.676C111.581 183.74 111.821 183.008 112.301 182.504C112.781 182 113.441 181.736 114.305 181.736C115.145 181.736 115.805 181.976 116.285 182.444C116.765 182.912 117.005 183.584 117.005 184.46V185.18H112.601ZM113.081 183.08C112.793 183.368 112.625 183.812 112.601 184.412H115.985V184.304C115.985 183.752 115.829 183.332 115.541 183.056C115.253 182.78 114.833 182.636 114.305 182.636C113.777 182.636 113.369 182.792 113.081 183.08ZM118.825 187.568C118.369 187.232 118.141 186.764 118.141 186.164V186.128H119.113V186.152C119.113 186.488 119.245 186.74 119.521 186.932C119.785 187.124 120.205 187.22 120.781 187.22C121.285 187.22 121.693 187.136 121.981 186.968C122.269 186.8 122.425 186.56 122.425 186.236C122.425 185.972 122.317 185.78 122.101 185.636C121.885 185.504 121.549 185.408 121.093 185.36L120.217 185.252C119.533 185.18 119.029 185 118.717 184.736C118.393 184.472 118.237 184.088 118.237 183.596C118.237 183.032 118.453 182.588 118.909 182.264C119.353 181.94 119.965 181.772 120.733 181.772C121.525 181.772 122.161 181.94 122.617 182.264C123.073 182.6 123.301 183.044 123.301 183.596V183.644H122.329V183.608C122.329 183.284 122.185 183.032 121.909 182.864C121.633 182.696 121.249 182.6 120.745 182.6C120.229 182.6 119.845 182.684 119.593 182.84C119.329 183.008 119.209 183.236 119.209 183.524C119.209 183.788 119.293 183.98 119.485 184.112C119.665 184.244 119.977 184.328 120.433 184.376L121.369 184.496C122.053 184.58 122.557 184.76 122.893 185.024C123.229 185.3 123.397 185.684 123.397 186.176C123.397 186.776 123.157 187.244 122.677 187.58C122.197 187.916 121.549 188.072 120.733 188.072C119.917 188.072 119.281 187.904 118.825 187.568ZM126.296 182.624V186.176C126.296 186.512 126.368 186.752 126.524 186.896C126.668 187.04 126.92 187.112 127.28 187.112H127.796V188H127.112C125.888 188 125.276 187.412 125.276 186.236V182.624H124.196V181.856H125.276V180.524L126.296 180.104V181.856H127.928V182.624H126.296ZM130.003 185.18V185.228C130.003 186.56 130.615 187.22 131.863 187.22C132.331 187.22 132.691 187.112 132.955 186.896C133.219 186.68 133.351 186.392 133.363 186.056V186.02H134.371V186.068C134.359 186.452 134.251 186.8 134.047 187.112C133.843 187.424 133.555 187.664 133.171 187.844C132.787 188.024 132.343 188.108 131.839 188.108C130.939 188.108 130.243 187.868 129.739 187.364C129.235 186.86 128.983 186.128 128.983 185.168V184.676C128.983 183.74 129.223 183.008 129.703 182.504C130.183 182 130.843 181.736 131.707 181.736C132.547 181.736 133.207 181.976 133.687 182.444C134.167 182.912 134.407 183.584 134.407 184.46V185.18H130.003ZM130.483 183.08C130.195 183.368 130.027 183.812 130.003 184.412H133.387V184.304C133.387 183.752 133.231 183.332 132.943 183.056C132.655 182.78 132.235 182.636 131.707 182.636C131.179 182.636 130.771 182.792 130.483 183.08ZM136.347 187.376C135.891 186.884 135.663 186.176 135.663 185.252V184.592C135.663 183.68 135.891 182.984 136.347 182.48C136.803 181.988 137.415 181.736 138.183 181.736C138.615 181.736 138.999 181.82 139.347 181.988C139.695 182.156 139.971 182.384 140.175 182.672V179.72H141.183V188H140.175V187.196C139.971 187.496 139.707 187.724 139.371 187.88C139.035 188.036 138.639 188.108 138.207 188.108C137.415 188.108 136.803 187.868 136.347 187.376ZM139.707 186.704C140.019 186.368 140.175 185.912 140.175 185.336V184.532C140.175 183.956 140.007 183.488 139.695 183.152C139.383 182.816 138.939 182.648 138.387 182.648C137.835 182.648 137.415 182.816 137.127 183.152C136.827 183.488 136.683 183.98 136.683 184.652V185.204C136.683 185.876 136.827 186.38 137.127 186.716C137.427 187.052 137.847 187.208 138.399 187.208C138.951 187.208 139.395 187.04 139.707 186.704Z" fill="#E9E7DD" fill-opacity="0.4"/>
<path d="M242.486 187.28C241.91 186.752 241.622 185.996 241.622 185.036V179.72H242.714V184.964C242.714 186.404 243.446 187.112 244.91 187.112C246.374 187.112 247.106 186.404 247.106 184.964V179.72H248.198V185.036C248.198 185.996 247.898 186.752 247.322 187.28C246.746 187.808 245.942 188.072 244.91 188.072C243.878 188.072 243.062 187.808 242.486 187.28ZM249.87 181.856H250.878V182.684C251.094 182.396 251.37 182.168 251.706 182.012C252.042 181.868 252.414 181.784 252.834 181.784C253.554 181.784 254.118 182 254.526 182.408C254.922 182.828 255.126 183.404 255.126 184.136V188H254.106V184.268C254.106 183.752 253.974 183.356 253.71 183.092C253.446 182.828 253.074 182.696 252.582 182.696C252.066 182.696 251.658 182.852 251.346 183.152C251.034 183.464 250.89 183.872 250.89 184.4V188H249.87V181.856ZM256.031 181.856H257.123L258.959 186.728L260.783 181.856H261.875L259.451 188H258.455L256.031 181.856ZM263.601 185.18V185.228C263.601 186.56 264.213 187.22 265.461 187.22C265.929 187.22 266.289 187.112 266.553 186.896C266.817 186.68 266.949 186.392 266.961 186.056V186.02H267.969V186.068C267.957 186.452 267.849 186.8 267.645 187.112C267.441 187.424 267.153 187.664 266.769 187.844C266.385 188.024 265.941 188.108 265.437 188.108C264.537 188.108 263.841 187.868 263.337 187.364C262.833 186.86 262.581 186.128 262.581 185.168V184.676C262.581 183.74 262.821 183.008 263.301 182.504C263.781 182 264.441 181.736 265.305 181.736C266.145 181.736 266.805 181.976 267.285 182.444C267.765 182.912 268.005 183.584 268.005 184.46V185.18H263.601ZM264.081 183.08C263.793 183.368 263.625 183.812 263.601 184.412H266.985V184.304C266.985 183.752 266.829 183.332 266.541 183.056C266.253 182.78 265.833 182.636 265.305 182.636C264.777 182.636 264.369 182.792 264.081 183.08ZM269.825 187.568C269.369 187.232 269.141 186.764 269.141 186.164V186.128H270.113V186.152C270.113 186.488 270.245 186.74 270.521 186.932C270.785 187.124 271.205 187.22 271.781 187.22C272.285 187.22 272.693 187.136 272.981 186.968C273.269 186.8 273.425 186.56 273.425 186.236C273.425 185.972 273.317 185.78 273.101 185.636C272.885 185.504 272.549 185.408 272.093 185.36L271.217 185.252C270.533 185.18 270.029 185 269.717 184.736C269.393 184.472 269.237 184.088 269.237 183.596C269.237 183.032 269.453 182.588 269.909 182.264C270.353 181.94 270.965 181.772 271.733 181.772C272.525 181.772 273.161 181.94 273.617 182.264C274.073 182.6 274.301 183.044 274.301 183.596V183.644H273.329V183.608C273.329 183.284 273.185 183.032 272.909 182.864C272.633 182.696 272.249 182.6 271.745 182.6C271.229 182.6 270.845 182.684 270.593 182.84C270.329 183.008 270.209 183.236 270.209 183.524C270.209 183.788 270.293 183.98 270.485 184.112C270.665 184.244 270.977 184.328 271.433 184.376L272.369 184.496C273.053 184.58 273.557 184.76 273.893 185.024C274.229 185.3 274.397 185.684 274.397 186.176C274.397 186.776 274.157 187.244 273.677 187.58C273.197 187.916 272.549 188.072 271.733 188.072C270.917 188.072 270.281 187.904 269.825 187.568ZM277.296 182.624V186.176C277.296 186.512 277.368 186.752 277.524 186.896C277.668 187.04 277.92 187.112 278.28 187.112H278.796V188H278.112C276.888 188 276.276 187.412 276.276 186.236V182.624H275.196V181.856H276.276V180.524L277.296 180.104V181.856H278.928V182.624H277.296ZM281.003 185.18V185.228C281.003 186.56 281.615 187.22 282.863 187.22C283.331 187.22 283.691 187.112 283.955 186.896C284.219 186.68 284.351 186.392 284.363 186.056V186.02H285.371V186.068C285.359 186.452 285.251 186.8 285.047 187.112C284.843 187.424 284.555 187.664 284.171 187.844C283.787 188.024 283.343 188.108 282.839 188.108C281.939 188.108 281.243 187.868 280.739 187.364C280.235 186.86 279.983 186.128 279.983 185.168V184.676C279.983 183.74 280.223 183.008 280.703 182.504C281.183 182 281.843 181.736 282.707 181.736C283.547 181.736 284.207 181.976 284.687 182.444C285.167 182.912 285.407 183.584 285.407 184.46V185.18H281.003ZM281.483 183.08C281.195 183.368 281.027 183.812 281.003 184.412H284.387V184.304C284.387 183.752 284.231 183.332 283.943 183.056C283.655 182.78 283.235 182.636 282.707 182.636C282.179 182.636 281.771 182.792 281.483 183.08ZM287.347 187.376C286.891 186.884 286.663 186.176 286.663 185.252V184.592C286.663 183.68 286.891 182.984 287.347 182.48C287.803 181.988 288.415 181.736 289.183 181.736C289.615 181.736 289.999 181.82 290.347 181.988C290.695 182.156 290.971 182.384 291.175 182.672V179.72H292.183V188H291.175V187.196C290.971 187.496 290.707 187.724 290.371 187.88C290.035 188.036 289.639 188.108 289.207 188.108C288.415 188.108 287.803 187.868 287.347 187.376ZM290.707 186.704C291.019 186.368 291.175 185.912 291.175 185.336V184.532C291.175 183.956 291.007 183.488 290.695 183.152C290.383 182.816 289.939 182.648 289.387 182.648C288.835 182.648 288.415 182.816 288.127 183.152C287.827 183.488 287.683 183.98 287.683 184.652V185.204C287.683 185.876 287.827 186.38 288.127 186.716C288.427 187.052 288.847 187.208 289.399 187.208C289.951 187.208 290.395 187.04 290.707 186.704Z" fill="#E9E7DD" fill-opacity="0.4"/>
<path d="M43.9922 0V168.483" stroke="white" stroke-opacity="0.3" stroke-width="1.39309"/>
<path d="M43.8672 168.484H381.992" stroke="white" stroke-opacity="0.3" stroke-width="1.39309"/>
<path d="M45 8L381 8" stroke="#E9E7DD" stroke-opacity="0.24" stroke-dasharray="3 3"/>
<path d="M45 61L381 61" stroke="#E9E7DD" stroke-opacity="0.24" stroke-dasharray="3 3"/>
<path d="M45 114L381 114" stroke="#E9E7DD" stroke-opacity="0.24" stroke-dasharray="3 3"/>
<rect x="96.2461" y="89" width="54.5065" height="40" rx="6.25326" fill="#060F13"/>
<rect x="96.5588" y="89.3127" width="53.8812" height="39.3747" rx="5.9406" stroke="#E9E7DD" stroke-opacity="0.24" stroke-width="0.625326"/>
<path d="M108.492 103.824C108.016 104.272 107.372 104.524 106.532 104.594V105.826H105.594V104.608C104.754 104.552 104.124 104.3 103.676 103.852C103.228 103.418 102.976 102.802 102.934 102.004H104.096C104.138 102.48 104.278 102.83 104.516 103.068C104.754 103.32 105.118 103.474 105.594 103.53V100.576L105.454 100.548C104.67 100.408 104.096 100.156 103.704 99.792C103.312 99.428 103.116 98.896 103.116 98.224C103.116 97.524 103.326 96.964 103.76 96.53C104.194 96.096 104.81 95.844 105.594 95.76V94.626H106.532V95.746C107.288 95.816 107.876 96.054 108.31 96.474C108.744 96.894 108.982 97.468 109.038 98.21H107.876C107.834 97.79 107.708 97.468 107.484 97.244C107.26 97.02 106.952 96.866 106.532 96.81V99.582L106.868 99.638C107.624 99.778 108.212 100.044 108.604 100.436C108.996 100.828 109.192 101.36 109.192 102.046C109.192 102.802 108.954 103.39 108.492 103.824ZM104.628 98.98C104.824 99.176 105.146 99.33 105.594 99.414V96.81C104.74 96.922 104.32 97.37 104.32 98.126C104.32 98.49 104.418 98.784 104.628 98.98ZM107.988 102.13C107.988 101.724 107.876 101.416 107.652 101.206C107.428 101.01 107.05 100.856 106.532 100.744V103.544C107.498 103.46 107.988 102.984 107.988 102.13ZM112.448 96.726L110.39 98.014V96.656L112.448 95.34H113.722V105H112.448V96.726ZM115.504 103.502H116.932V105H115.504V103.502ZM119.203 104.454C118.699 104.006 118.461 103.418 118.461 102.69V102.578H119.679V102.648C119.679 103.04 119.819 103.376 120.099 103.628C120.379 103.894 120.785 104.02 121.331 104.02C122.451 104.02 123.025 103.39 123.025 102.13V101.64C123.025 101.024 122.885 100.548 122.605 100.226C122.325 99.904 121.905 99.736 121.373 99.736C121.009 99.736 120.687 99.82 120.435 99.988C120.169 100.156 119.973 100.38 119.847 100.688H118.615V95.34H124.019V96.474H119.749V99.33C119.959 99.12 120.225 98.952 120.561 98.826C120.883 98.7 121.233 98.63 121.597 98.63C122.437 98.63 123.095 98.896 123.571 99.4C124.047 99.918 124.285 100.646 124.285 101.584V102.186C124.285 103.124 124.019 103.852 123.501 104.37C122.969 104.888 122.241 105.14 121.303 105.14C120.393 105.14 119.693 104.916 119.203 104.454ZM129.873 100.94C129.565 101.108 129.159 101.192 128.655 101.192C128.123 101.192 127.647 101.08 127.227 100.842C126.807 100.604 126.471 100.268 126.233 99.848C125.995 99.428 125.883 98.952 125.883 98.42V98.084C125.883 97.202 126.163 96.502 126.723 95.984C127.283 95.466 128.039 95.2 128.991 95.2C129.943 95.2 130.699 95.466 131.259 95.97C131.819 96.488 132.099 97.174 132.099 98.028V98.336C132.099 98.798 132.015 99.232 131.875 99.638C131.735 100.058 131.497 100.52 131.161 101.052L128.781 105H127.409L129.873 100.94ZM130.349 99.624C130.671 99.316 130.839 98.896 130.839 98.35V98.028C130.839 97.496 130.671 97.076 130.335 96.768C129.999 96.46 129.551 96.306 128.991 96.306C128.417 96.306 127.969 96.474 127.633 96.782C127.297 97.09 127.143 97.51 127.143 98.042V98.364C127.143 98.896 127.311 99.302 127.647 99.61C127.983 99.918 128.431 100.072 129.005 100.072C129.565 100.072 130.013 99.932 130.349 99.624ZM143.408 95.34V105H142.148V97.692L139.082 103.082H138.186L135.12 97.692V105H133.846V95.34H135.12L138.634 101.612L142.148 95.34H143.408Z" fill="#E9E7DD"/>
<path d="M105.032 120.656C104.756 119.828 104.624 118.964 104.624 118.064C104.624 117.164 104.756 116.3 105.044 115.46C105.32 114.62 105.728 113.84 106.28 113.12H107.132C106.652 113.828 106.292 114.608 106.028 115.472C105.764 116.336 105.644 117.2 105.644 118.064C105.644 118.952 105.764 119.816 106.028 120.68C106.292 121.544 106.652 122.312 107.132 123.008H106.268C105.716 122.276 105.308 121.496 105.032 120.656ZM110.066 114.908L108.302 116.012V114.848L110.066 113.72H111.158V122H110.066V114.908ZM116.189 118.52C115.925 118.664 115.577 118.736 115.145 118.736C114.689 118.736 114.281 118.64 113.921 118.436C113.561 118.232 113.273 117.944 113.069 117.584C112.865 117.224 112.769 116.816 112.769 116.36V116.072C112.769 115.316 113.009 114.716 113.489 114.272C113.969 113.828 114.617 113.6 115.433 113.6C116.249 113.6 116.897 113.828 117.377 114.26C117.857 114.704 118.097 115.292 118.097 116.024V116.288C118.097 116.684 118.025 117.056 117.905 117.404C117.785 117.764 117.581 118.16 117.293 118.616L115.253 122H114.077L116.189 118.52ZM116.597 117.392C116.873 117.128 117.017 116.768 117.017 116.3V116.024C117.017 115.568 116.873 115.208 116.585 114.944C116.297 114.68 115.913 114.548 115.433 114.548C114.941 114.548 114.557 114.692 114.269 114.956C113.981 115.22 113.849 115.58 113.849 116.036V116.312C113.849 116.768 113.993 117.116 114.281 117.38C114.569 117.644 114.953 117.776 115.445 117.776C115.925 117.776 116.309 117.656 116.597 117.392ZM119.306 120.716H120.53V122H119.306V120.716ZM122.453 121.568C121.997 121.196 121.781 120.668 121.781 119.996V119.876H122.837V119.984C122.837 120.368 122.957 120.668 123.221 120.872C123.485 121.076 123.857 121.172 124.361 121.172C124.853 121.172 125.237 121.052 125.501 120.812C125.765 120.572 125.897 120.236 125.897 119.792V119.564C125.897 119.12 125.753 118.784 125.477 118.544C125.201 118.316 124.793 118.196 124.265 118.196H123.773V117.236H124.253C124.733 117.236 125.105 117.128 125.369 116.9C125.621 116.684 125.753 116.36 125.753 115.952V115.784C125.753 115.388 125.621 115.088 125.381 114.872C125.141 114.656 124.781 114.548 124.325 114.548C123.857 114.548 123.509 114.656 123.269 114.86C123.029 115.076 122.909 115.376 122.909 115.76V115.88H121.877V115.748C121.877 115.076 122.093 114.56 122.525 114.176C122.957 113.792 123.569 113.6 124.361 113.6C125.129 113.6 125.741 113.792 126.173 114.164C126.605 114.536 126.833 115.052 126.833 115.712V115.892C126.833 116.312 126.725 116.672 126.509 116.96C126.293 117.248 126.005 117.476 125.645 117.62C126.077 117.764 126.413 118.004 126.641 118.34C126.869 118.676 126.989 119.096 126.989 119.576V119.792C126.989 120.512 126.749 121.088 126.281 121.496C125.801 121.916 125.165 122.12 124.349 122.12C123.533 122.12 122.909 121.94 122.453 121.568ZM128.619 118.316C128.331 117.98 128.199 117.488 128.199 116.84V115.544C128.199 114.92 128.343 114.452 128.631 114.128C128.919 113.804 129.351 113.636 129.915 113.636C131.055 113.636 131.631 114.272 131.631 115.544V116.84C131.631 117.488 131.487 117.98 131.199 118.316C130.911 118.652 130.479 118.808 129.903 118.808C129.327 118.808 128.907 118.652 128.619 118.316ZM135.003 113.696H135.891L131.319 122H130.443L135.003 113.696ZM130.515 117.716C130.635 117.524 130.695 117.212 130.695 116.78V115.64C130.695 115.232 130.635 114.92 130.515 114.728C130.395 114.536 130.191 114.44 129.915 114.44C129.627 114.44 129.423 114.536 129.303 114.728C129.183 114.92 129.123 115.232 129.123 115.64V116.78C129.123 117.212 129.183 117.524 129.303 117.716C129.423 117.908 129.627 118.004 129.915 118.004C130.191 118.004 130.395 117.908 130.515 117.716ZM134.763 120.104V118.82C134.763 118.196 134.907 117.716 135.195 117.392C135.483 117.08 135.903 116.912 136.479 116.912C137.619 116.912 138.195 117.548 138.195 118.82V120.104C138.195 121.424 137.619 122.072 136.467 122.072C135.327 122.072 134.763 121.424 134.763 120.104ZM137.079 120.98C137.199 120.788 137.259 120.488 137.259 120.056V118.916C137.259 118.496 137.199 118.196 137.079 118.004C136.959 117.812 136.755 117.716 136.479 117.716C136.191 117.716 135.987 117.812 135.867 118.004C135.747 118.196 135.687 118.496 135.687 118.916V120.056C135.687 120.488 135.747 120.788 135.867 120.98C135.987 121.172 136.191 121.268 136.479 121.268C136.755 121.268 136.959 121.172 137.079 120.98ZM140.415 120.68C140.679 119.816 140.811 118.952 140.811 118.064C140.811 117.2 140.679 116.336 140.415 115.472C140.151 114.608 139.791 113.828 139.323 113.12H140.175C140.715 113.84 141.123 114.62 141.411 115.46C141.687 116.3 141.831 117.164 141.831 118.064C141.831 118.964 141.687 119.828 141.411 120.656C141.135 121.496 140.727 122.276 140.187 123.008H139.323C139.791 122.312 140.151 121.544 140.415 120.68Z" fill="#E9E7DD" fill-opacity="0.6"/>
<path d="M78 145C78 140.582 81.5817 137 86 137H161C165.418 137 169 140.582 169 145V168H78V145Z" fill="#23B05B"/>
<rect x="237.746" y="11" width="57.5065" height="40" rx="6.25326" fill="#060F13"/>
<rect x="238.059" y="11.3127" width="56.8812" height="39.3747" rx="5.9406" stroke="#E9E7DD" stroke-opacity="0.24" stroke-width="0.625326"/>
<path d="M249.992 25.824C249.516 26.272 248.872 26.524 248.032 26.594V27.826H247.094V26.608C246.254 26.552 245.624 26.3 245.176 25.852C244.728 25.418 244.476 24.802 244.434 24.004H245.596C245.638 24.48 245.778 24.83 246.016 25.068C246.254 25.32 246.618 25.474 247.094 25.53V22.576L246.954 22.548C246.17 22.408 245.596 22.156 245.204 21.792C244.812 21.428 244.616 20.896 244.616 20.224C244.616 19.524 244.826 18.964 245.26 18.53C245.694 18.096 246.31 17.844 247.094 17.76V16.626H248.032V17.746C248.788 17.816 249.376 18.054 249.81 18.474C250.244 18.894 250.482 19.468 250.538 20.21H249.376C249.334 19.79 249.208 19.468 248.984 19.244C248.76 19.02 248.452 18.866 248.032 18.81V21.582L248.368 21.638C249.124 21.778 249.712 22.044 250.104 22.436C250.496 22.828 250.692 23.36 250.692 24.046C250.692 24.802 250.454 25.39 249.992 25.824ZM246.128 20.98C246.324 21.176 246.646 21.33 247.094 21.414V18.81C246.24 18.922 245.82 19.37 245.82 20.126C245.82 20.49 245.918 20.784 246.128 20.98ZM249.488 24.13C249.488 23.724 249.376 23.416 249.152 23.206C248.928 23.01 248.55 22.856 248.032 22.744V25.544C248.998 25.46 249.488 24.984 249.488 24.13ZM252.87 26.37C252.31 25.866 252.03 25.18 252.03 24.312V24.004C252.03 23.556 252.1 23.122 252.24 22.702C252.38 22.296 252.632 21.82 252.982 21.288L255.348 17.34H256.734L254.27 21.4C254.396 21.33 254.564 21.274 254.774 21.218C254.984 21.176 255.222 21.148 255.474 21.148C256.006 21.148 256.482 21.274 256.902 21.512C257.322 21.75 257.644 22.072 257.882 22.492C258.12 22.912 258.246 23.388 258.246 23.92V24.256C258.246 25.152 257.952 25.852 257.392 26.37C256.832 26.888 256.076 27.14 255.138 27.14C254.186 27.14 253.43 26.888 252.87 26.37ZM256.482 25.572C256.818 25.264 256.986 24.83 256.986 24.298V23.976C256.986 23.458 256.818 23.038 256.482 22.73C256.146 22.422 255.698 22.268 255.124 22.268C254.55 22.268 254.102 22.422 253.78 22.73C253.458 23.038 253.304 23.458 253.304 23.99V24.312C253.304 24.844 253.458 25.264 253.794 25.572C254.13 25.88 254.578 26.034 255.138 26.034C255.698 26.034 256.146 25.88 256.482 25.572ZM259.656 25.502H261.084V27H259.656V25.502ZM263.37 26.37C262.81 25.866 262.53 25.18 262.53 24.312V24.004C262.53 23.556 262.6 23.122 262.74 22.702C262.88 22.296 263.132 21.82 263.482 21.288L265.848 17.34H267.234L264.77 21.4C264.896 21.33 265.064 21.274 265.274 21.218C265.484 21.176 265.722 21.148 265.974 21.148C266.506 21.148 266.982 21.274 267.402 21.512C267.822 21.75 268.144 22.072 268.382 22.492C268.62 22.912 268.746 23.388 268.746 23.92V24.256C268.746 25.152 268.452 25.852 267.892 26.37C267.332 26.888 266.576 27.14 265.638 27.14C264.686 27.14 263.93 26.888 263.37 26.37ZM266.982 25.572C267.318 25.264 267.486 24.83 267.486 24.298V23.976C267.486 23.458 267.318 23.038 266.982 22.73C266.646 22.422 266.198 22.268 265.624 22.268C265.05 22.268 264.602 22.422 264.28 22.73C263.958 23.038 263.804 23.458 263.804 23.99V24.312C263.804 24.844 263.958 25.264 264.294 25.572C264.63 25.88 265.078 26.034 265.638 26.034C266.198 26.034 266.646 25.88 266.982 25.572ZM271.08 26.454C270.576 26.006 270.338 25.418 270.338 24.69V24.578H271.556V24.648C271.556 25.04 271.696 25.376 271.976 25.628C272.256 25.894 272.662 26.02 273.208 26.02C274.328 26.02 274.902 25.39 274.902 24.13V23.64C274.902 23.024 274.762 22.548 274.482 22.226C274.202 21.904 273.782 21.736 273.25 21.736C272.886 21.736 272.564 21.82 272.312 21.988C272.046 22.156 271.85 22.38 271.724 22.688H270.492V17.34H275.896V18.474H271.626V21.33C271.836 21.12 272.102 20.952 272.438 20.826C272.76 20.7 273.11 20.63 273.474 20.63C274.314 20.63 274.972 20.896 275.448 21.4C275.924 21.918 276.162 22.646 276.162 23.584V24.186C276.162 25.124 275.896 25.852 275.378 26.37C274.846 26.888 274.118 27.14 273.18 27.14C272.27 27.14 271.57 26.916 271.08 26.454ZM287.56 17.34V27H286.3V19.692L283.234 25.082H282.338L279.272 19.692V27H277.998V17.34H279.272L282.786 23.612L286.3 17.34H287.56Z" fill="#E9E7DD"/>
<path d="M247.032 42.656C246.756 41.828 246.624 40.964 246.624 40.064C246.624 39.164 246.756 38.3 247.044 37.46C247.32 36.62 247.728 35.84 248.28 35.12H249.132C248.652 35.828 248.292 36.608 248.028 37.472C247.764 38.336 247.644 39.2 247.644 40.064C247.644 40.952 247.764 41.816 248.028 42.68C248.292 43.544 248.652 44.312 249.132 45.008H248.268C247.716 44.276 247.308 43.496 247.032 42.656ZM251.226 43.484C250.734 43.064 250.494 42.488 250.494 41.768V41.588C250.494 41.132 250.602 40.748 250.818 40.412C251.034 40.076 251.346 39.824 251.766 39.644C251.418 39.5 251.154 39.272 250.962 38.96C250.77 38.66 250.674 38.312 250.674 37.916V37.76C250.674 37.34 250.77 36.968 250.986 36.632C251.19 36.308 251.478 36.056 251.862 35.876C252.234 35.696 252.678 35.6 253.182 35.6C253.686 35.6 254.118 35.696 254.502 35.876C254.886 36.056 255.174 36.308 255.39 36.632C255.594 36.968 255.702 37.34 255.702 37.76V37.916C255.702 38.312 255.594 38.66 255.402 38.96C255.21 39.272 254.946 39.5 254.61 39.644C255.018 39.824 255.33 40.076 255.546 40.412C255.762 40.748 255.87 41.144 255.87 41.576V41.756C255.87 42.476 255.618 43.052 255.126 43.484C254.634 43.916 253.986 44.12 253.182 44.12C252.366 44.12 251.706 43.916 251.226 43.484ZM254.238 38.852C254.49 38.636 254.622 38.324 254.622 37.94V37.76C254.622 37.388 254.49 37.088 254.238 36.872C253.974 36.656 253.626 36.548 253.182 36.548C252.738 36.548 252.39 36.656 252.138 36.872C251.874 37.088 251.754 37.388 251.754 37.76V37.94C251.754 38.324 251.874 38.636 252.126 38.852C252.378 39.08 252.726 39.188 253.182 39.188C253.638 39.188 253.986 39.08 254.238 38.852ZM254.358 42.8C254.646 42.548 254.79 42.2 254.79 41.744V41.552C254.79 41.12 254.646 40.772 254.358 40.52C254.07 40.268 253.686 40.136 253.182 40.136C252.678 40.136 252.282 40.268 251.994 40.52C251.706 40.772 251.574 41.12 251.574 41.552V41.744C251.574 42.2 251.706 42.548 251.994 42.8C252.282 43.052 252.678 43.172 253.182 43.172C253.686 43.172 254.07 43.052 254.358 42.8ZM257.962 43.364C257.53 42.86 257.314 42.104 257.314 41.096V38.564C257.314 37.592 257.53 36.86 257.962 36.356C258.394 35.852 259.03 35.6 259.882 35.6C260.722 35.6 261.37 35.852 261.802 36.356C262.234 36.86 262.462 37.592 262.462 38.564V41.096C262.462 42.104 262.234 42.86 261.802 43.364C261.37 43.868 260.722 44.12 259.882 44.12C259.03 44.12 258.394 43.868 257.962 43.364ZM261.022 42.644C261.25 42.308 261.37 41.756 261.37 41.012V38.708C261.37 37.964 261.25 37.424 261.01 37.088C260.77 36.752 260.398 36.572 259.882 36.572C259.366 36.572 258.994 36.752 258.754 37.088C258.514 37.424 258.406 37.964 258.406 38.708V41.012C258.406 41.756 258.514 42.308 258.754 42.644C258.994 42.98 259.366 43.148 259.882 43.148C260.41 43.148 260.782 42.98 261.022 42.644ZM263.744 42.716H264.968V44H263.744V42.716ZM270.995 35.72V36.692L267.851 44H266.747L269.903 36.692H265.991V35.72H270.995ZM272.342 40.316C272.054 39.98 271.922 39.488 271.922 38.84V37.544C271.922 36.92 272.066 36.452 272.354 36.128C272.642 35.804 273.074 35.636 273.638 35.636C274.778 35.636 275.354 36.272 275.354 37.544V38.84C275.354 39.488 275.21 39.98 274.922 40.316C274.634 40.652 274.202 40.808 273.626 40.808C273.05 40.808 272.63 40.652 272.342 40.316ZM278.726 35.696H279.614L275.042 44H274.166L278.726 35.696ZM274.238 39.716C274.358 39.524 274.418 39.212 274.418 38.78V37.64C274.418 37.232 274.358 36.92 274.238 36.728C274.118 36.536 273.914 36.44 273.638 36.44C273.35 36.44 273.146 36.536 273.026 36.728C272.906 36.92 272.846 37.232 272.846 37.64V38.78C272.846 39.212 272.906 39.524 273.026 39.716C273.146 39.908 273.35 40.004 273.638 40.004C273.914 40.004 274.118 39.908 274.238 39.716ZM278.486 42.104V40.82C278.486 40.196 278.63 39.716 278.918 39.392C279.206 39.08 279.626 38.912 280.202 38.912C281.342 38.912 281.918 39.548 281.918 40.82V42.104C281.918 43.424 281.342 44.072 280.19 44.072C279.05 44.072 278.486 43.424 278.486 42.104ZM280.802 42.98C280.922 42.788 280.982 42.488 280.982 42.056V40.916C280.982 40.496 280.922 40.196 280.802 40.004C280.682 39.812 280.478 39.716 280.202 39.716C279.914 39.716 279.71 39.812 279.59 40.004C279.47 40.196 279.41 40.496 279.41 40.916V42.056C279.41 42.488 279.47 42.788 279.59 42.98C279.71 43.172 279.914 43.268 280.202 43.268C280.478 43.268 280.682 43.172 280.802 42.98ZM284.138 42.68C284.402 41.816 284.534 40.952 284.534 40.064C284.534 39.2 284.402 38.336 284.138 37.472C283.874 36.608 283.514 35.828 283.046 35.12H283.898C284.438 35.84 284.846 36.62 285.134 37.46C285.41 38.3 285.554 39.164 285.554 40.064C285.554 40.964 285.41 41.828 285.134 42.656C284.858 43.496 284.45 44.276 283.91 45.008H283.046C283.514 44.312 283.874 43.544 284.138 42.68Z" fill="#E9E7DD" fill-opacity="0.6"/>
<path d="M221 67C221 62.5817 224.582 59 229 59H304C308.418 59 312 62.5817 312 67V168H221V67Z" fill="#99ACB6"/>
</svg>
