<svg width="36" height="36" viewBox="0 0 36 36" fill="none" xmlns="http://www.w3.org/2000/svg">
<rect width="36" height="36" rx="18" fill="#FBFAF8"/>
<g clip-path="url(#clip0_18_7140)">
<path fill-rule="evenodd" clip-rule="evenodd" d="M17.6458 10C13.4233 10 10 13.4233 10 17.6458C10 18.1496 10.4086 18.5581 10.9124 18.5581H17.4419V23.9535C17.4419 24.2002 17.3439 24.4368 17.1694 24.6113C16.9949 24.7857 16.7583 24.8837 16.5116 24.8837C16.2649 24.8837 16.0283 24.7857 15.8539 24.6113C15.6794 24.4368 15.5814 24.2002 15.5814 23.9535V23.2093C15.5814 23.0613 15.5226 22.9193 15.4179 22.8146C15.3132 22.71 15.1713 22.6512 15.0233 22.6512C14.8752 22.6512 14.7333 22.71 14.6286 22.8146C14.5239 22.9193 14.4651 23.0613 14.4651 23.2093V23.9535C14.4651 24.4963 14.6807 25.0168 15.0645 25.4006C15.4483 25.7844 15.9689 26 16.5116 26C17.0544 26 17.5749 25.7844 17.9587 25.4006C18.3425 25.0168 18.5581 24.4963 18.5581 23.9535V18.5581H25.0876C25.5914 18.5581 26 18.1496 26 17.6458C26 13.4233 22.5767 10 18.3542 10H17.6458ZM15.6513 11.4266C14.3676 11.8391 13.2428 12.6386 12.4314 13.7156C11.62 14.7925 11.1617 16.0941 11.1193 17.4419H13.8437C13.9747 16.3687 14.2352 14.7658 14.73 13.3399C14.9674 12.6553 15.2673 11.9847 15.6513 11.4266ZM14.9689 17.4419C15.0999 16.4134 15.3455 14.9712 15.7846 13.7053C16.054 12.9299 16.3814 12.2608 16.7706 11.795C17.1531 11.3366 17.5557 11.1163 18 11.1163C18.4443 11.1163 18.8469 11.3366 19.2294 11.795C19.6186 12.2608 19.946 12.9299 20.2154 13.7053C20.6545 14.9712 20.9001 16.4141 21.0311 17.4419H14.9689ZM22.1563 17.4419C22.0253 16.3687 21.7641 14.7658 21.27 13.3399C21.0326 12.6553 20.7327 11.9847 20.3487 11.4266C21.6324 11.8391 22.7572 12.6386 23.5686 13.7156C24.38 14.7925 24.8383 16.0941 24.8807 17.4419H22.1563Z" fill="#356674"/>
</g>
<defs>
<clipPath id="clip0_18_7140">
<rect width="16" height="16" fill="white" transform="translate(10 10)"/>
</clipPath>
</defs>
</svg>
