<svg width="12" height="14" viewBox="0 0 12 14" fill="none" xmlns="http://www.w3.org/2000/svg">
<path d="M4.92857 4.04286H9.35714M2.27143 4.04286H3.15714M4.92857 6.7H9.35714M2.27143 6.7H3.15714M4.92857 9.35714H9.35714M2.27143 9.35714H3.15714M11.1286 11.1286V2.27143C11.1286 1.80162 10.9419 1.35105 10.6097 1.01884C10.2775 0.686632 9.82696 0.5 9.35714 0.5H2.27143C1.80162 0.5 1.35105 0.686632 1.01884 1.01884C0.686632 1.35105 0.5 1.80162 0.5 2.27143V11.1286C0.5 11.5984 0.686632 12.049 1.01884 12.3812C1.35105 12.7134 1.80162 12.9 2.27143 12.9H9.35714C9.82696 12.9 10.2775 12.7134 10.6097 12.3812C10.9419 12.049 11.1286 11.5984 11.1286 11.1286Z" stroke="#E9E7DD" stroke-opacity="0.8" stroke-linecap="round" stroke-linejoin="round"/>
</svg>
