<svg width="16" height="16" viewBox="0 0 16 16" fill="none" xmlns="http://www.w3.org/2000/svg">
<g clip-path="url(#clip0_10302_46435)">
<path d="M4.66667 10.0026H2.66667C2.48986 10.0026 2.32029 9.93237 2.19526 9.80734C2.07024 9.68232 2 9.51275 2 9.33594V4.0026C2 3.82579 2.07024 3.65622 2.19526 3.5312C2.32029 3.40618 2.48986 3.33594 2.66667 3.33594H10.6667C10.8435 3.33594 11.013 3.40618 11.1381 3.5312C11.2631 3.65622 11.3333 3.82579 11.3333 4.0026V6.0026" stroke="#E9E7DD" stroke-linecap="round" stroke-linejoin="round"/>
<path d="M8.00521 12.6667H5.33854C5.16173 12.6667 4.99216 12.5964 4.86714 12.4714C4.74211 12.3464 4.67188 12.1768 4.67188 12V6.66667C4.67188 6.48986 4.74211 6.32029 4.86714 6.19526C4.99216 6.07024 5.16173 6 5.33854 6H13.3385C13.5154 6 13.6849 6.07024 13.8099 6.19526C13.935 6.32029 14.0052 6.48986 14.0052 6.66667V8.33333" stroke="#E9E7DD" stroke-linecap="round" stroke-linejoin="round"/>
<path d="M10.6667 12.6667H14.6667M12.6667 10.6667V14.6667M8 9.33333C8 9.68696 8.14048 10.0261 8.39052 10.2761C8.64057 10.5262 8.97971 10.6667 9.33333 10.6667C9.68696 10.6667 10.0261 10.5262 10.2761 10.2761C10.5262 10.0261 10.6667 9.68696 10.6667 9.33333C10.6667 8.97971 10.5262 8.64057 10.2761 8.39052C10.0261 8.14048 9.68696 8 9.33333 8C8.97971 8 8.64057 8.14048 8.39052 8.39052C8.14048 8.64057 8 8.97971 8 9.33333Z" stroke="#E9E7DD" stroke-linecap="round" stroke-linejoin="round"/>
</g>
<defs>
<clipPath id="clip0_10302_46435">
<rect width="16" height="16" fill="white"/>
</clipPath>
</defs>
</svg>
