<svg width="19" height="19" viewBox="0 0 19 19" fill="none" xmlns="http://www.w3.org/2000/svg">
<path d="M3.86391 6.97197V14.7221M6.96397 6.97197V14.7221M11.6141 6.97197V9.29702M14.7141 6.97197V9.29702M16.1673 16.8534H16.0704M11.9047 12.5908H11.8078M16.2641 12.3971L11.6141 17.0472M8.514 17.0472H2.8161C2.04108 17.0472 1.65357 17.0472 1.55825 16.8077C1.46137 16.569 1.73573 16.2869 2.28289 15.7242L2.8161 15.1763C3.03387 14.9515 3.14315 14.8399 3.2811 14.781C3.42061 14.7221 3.57406 14.7221 3.88252 14.7221H8.514M16.2641 16.8534C16.2641 16.9048 16.2437 16.9541 16.2074 16.9904C16.1711 17.0267 16.1218 17.0472 16.0704 17.0472C16.019 17.0472 15.9697 17.0267 15.9334 16.9904C15.897 16.9541 15.8766 16.9048 15.8766 16.8534C15.8766 16.802 15.897 16.7527 15.9334 16.7164C15.9697 16.6801 16.019 16.6596 16.0704 16.6596C16.1218 16.6596 16.1711 16.6801 16.2074 16.7164C16.2437 16.7527 16.2641 16.802 16.2641 16.8534ZM12.0016 12.5908C12.0016 12.6422 11.9811 12.6915 11.9448 12.7278C11.9085 12.7642 11.8592 12.7846 11.8078 12.7846C11.7564 12.7846 11.7071 12.7642 11.6708 12.7278C11.6345 12.6915 11.6141 12.6422 11.6141 12.5908C11.6141 12.5394 11.6345 12.4902 11.6708 12.4538C11.7071 12.4175 11.7564 12.3971 11.8078 12.3971C11.8592 12.3971 11.9085 12.4175 11.9448 12.4538C11.9811 12.4902 12.0016 12.5394 12.0016 12.5908ZM16.5369 6.97197H2.04108C1.93226 6.97043 1.82679 6.93406 1.74015 6.86819C1.65351 6.80233 1.59025 6.71043 1.55965 6.60599C1.52906 6.50154 1.53273 6.39004 1.57014 6.28784C1.60754 6.18563 1.67671 6.0981 1.7675 6.03808L6.75472 2.75977C7.98466 1.95143 8.59925 1.54688 9.28901 1.54688C9.97878 1.54688 10.5934 1.95143 11.8233 2.75977L16.8105 6.03808C16.9008 6.0984 16.9695 6.18596 17.0065 6.28801C17.0436 6.39006 17.0471 6.50128 17.0166 6.60547C16.9861 6.70967 16.9231 6.8014 16.8368 6.86732C16.7506 6.93324 16.6455 6.9699 16.5369 6.97197Z" stroke="#E9E7DD" stroke-opacity="0.8" stroke-width="1.16252" stroke-linecap="round" stroke-linejoin="round"/>
</svg>
