<svg width="16" height="16" viewBox="0 0 16 16" fill="none" xmlns="http://www.w3.org/2000/svg">
<path d="M13.0026 2.66536H11.0026V1.66536C11.0026 1.57696 10.9675 1.49217 10.905 1.42966C10.8425 1.36715 10.7577 1.33203 10.6693 1.33203C10.5809 1.33203 10.4961 1.36715 10.4336 1.42966C10.3711 1.49217 10.3359 1.57696 10.3359 1.66536V2.66536H5.66927V1.66536C5.66927 1.57696 5.63415 1.49217 5.57164 1.42966C5.50913 1.36715 5.42434 1.33203 5.33594 1.33203C5.24753 1.33203 5.16275 1.36715 5.10023 1.42966C5.03772 1.49217 5.0026 1.57696 5.0026 1.66536V2.66536H3.0026C2.56074 2.66589 2.13712 2.84166 1.82468 3.1541C1.51223 3.46655 1.33647 3.89017 1.33594 4.33203V12.9987C1.33647 13.4406 1.51223 13.8642 1.82468 14.1766C2.13712 14.4891 2.56074 14.6648 3.0026 14.6654H13.0026C13.4446 14.6654 13.8686 14.4898 14.1811 14.1772C14.4937 13.8646 14.6693 13.4407 14.6693 12.9987V4.33203C14.6693 3.89 14.4937 3.46608 14.1811 3.15352C13.8686 2.84096 13.4446 2.66536 13.0026 2.66536ZM14.0026 12.9987C14.0026 13.2639 13.8972 13.5183 13.7097 13.7058C13.5222 13.8933 13.2678 13.9987 13.0026 13.9987H3.0026C2.73739 13.9987 2.48303 13.8933 2.2955 13.7058C2.10796 13.5183 2.0026 13.2639 2.0026 12.9987V7.33203H14.0026V12.9987ZM14.0026 6.66536H2.0026V4.33203C2.0026 3.78003 2.44927 3.33203 3.0026 3.33203H5.0026V4.33203C5.0026 4.42044 5.03772 4.50522 5.10023 4.56773C5.16275 4.63025 5.24753 4.66536 5.33594 4.66536C5.42434 4.66536 5.50913 4.63025 5.57164 4.56773C5.63415 4.50522 5.66927 4.42044 5.66927 4.33203V3.33203H10.3359V4.33203C10.3359 4.42044 10.3711 4.50522 10.4336 4.56773C10.4961 4.63025 10.5809 4.66536 10.6693 4.66536C10.7577 4.66536 10.8425 4.63025 10.905 4.56773C10.9675 4.50522 11.0026 4.42044 11.0026 4.33203V3.33203H13.0026C13.2678 3.33203 13.5222 3.43739 13.7097 3.62492C13.8972 3.81246 14.0026 4.06681 14.0026 4.33203V6.66536Z" fill="#E9E7DD"/>
</svg>
