<svg width="16" height="16" viewBox="0 0 16 16" fill="none" xmlns="http://www.w3.org/2000/svg">
<g clip-path="url(#clip0_9647_72981)">
<path d="M8.0026 12.0026C7.64898 12.0026 7.30984 12.1431 7.0598 12.3931C6.80975 12.6432 6.66927 12.9823 6.66927 13.3359C6.66927 13.6896 6.80975 14.0287 7.0598 14.2787C7.30984 14.5288 7.64898 14.6693 8.0026 14.6693C8.35623 14.6693 8.69536 14.5288 8.94541 14.2787C9.19546 14.0287 9.33594 13.6896 9.33594 13.3359C9.33594 12.9823 9.19546 12.6432 8.94541 12.3931C8.69536 12.1431 8.35623 12.0026 8.0026 12.0026ZM8.0026 12.0026V4.0026M8.0026 4.0026C8.35623 4.0026 8.69536 3.86213 8.94541 3.61208C9.19546 3.36203 9.33594 3.02289 9.33594 2.66927C9.33594 2.31565 9.19546 1.97651 8.94541 1.72646C8.69536 1.47641 8.35623 1.33594 8.0026 1.33594C7.64898 1.33594 7.30984 1.47641 7.0598 1.72646C6.80975 1.97651 6.66927 2.31565 6.66927 2.66927C6.66927 3.02289 6.80975 3.36203 7.0598 3.61208C7.30984 3.86213 7.64898 4.0026 8.0026 4.0026ZM13.3359 12.0026C12.9823 12.0026 12.6432 12.1431 12.3931 12.3931C12.1431 12.6432 12.0026 12.9823 12.0026 13.3359C12.0026 13.6896 12.1431 14.0287 12.3931 14.2787C12.6432 14.5288 12.9823 14.6693 13.3359 14.6693C13.6896 14.6693 14.0287 14.5288 14.2787 14.2787C14.5288 14.0287 14.6693 13.6896 14.6693 13.3359C14.6693 12.9823 14.5288 12.6432 14.2787 12.3931C14.0287 12.1431 13.6896 12.0026 13.3359 12.0026ZM13.3359 12.0026V9.80727C13.3359 8.8146 12.5359 8.0026 11.5579 8.0026H4.44727C3.46927 8.0026 2.66927 8.8146 2.66927 9.80727V12.0026M2.66927 12.0026C2.31565 12.0026 1.97651 12.1431 1.72646 12.3931C1.47641 12.6432 1.33594 12.9823 1.33594 13.3359C1.33594 13.6896 1.47641 14.0287 1.72646 14.2787C1.97651 14.5288 2.31565 14.6693 2.66927 14.6693C3.02289 14.6693 3.36203 14.5288 3.61208 14.2787C3.86213 14.0287 4.0026 13.6896 4.0026 13.3359C4.0026 12.9823 3.86213 12.6432 3.61208 12.3931C3.36203 12.1431 3.02289 12.0026 2.66927 12.0026Z" stroke="#E9E7DD" stroke-miterlimit="10" stroke-linecap="round" stroke-linejoin="round"/>
</g>
<defs>
<clipPath id="clip0_9647_72981">
<rect width="16" height="16" fill="white"/>
</clipPath>
</defs>
</svg>
